<svg width="24" height="24" viewBox="0 0 24 24" fill="none" xmlns="http://www.w3.org/2000/svg">
<mask id="mask0_18012_17316" style="mask-type:alpha" maskUnits="userSpaceOnUse" x="0" y="0" width="24" height="24">
<rect width="24" height="24" fill="#46464F"/>
</mask>
<g mask="url(#mask0_18012_17316)">
<path d="M13.9863 20.0127C13.9833 20.5539 13.7896 21.017 13.4033 21.4033C13.014 21.7927 12.5467 21.9873 12 21.9873C11.4533 21.9873 10.986 21.7927 10.5967 21.4033C10.2104 21.017 10.0167 20.5539 10.0137 20.0127H13.9863ZM12 2.0127C12.4134 2.0127 12.7644 2.15699 13.0537 2.44629C13.343 2.73558 13.4873 3.08661 13.4873 3.5V4.20996L13.4971 4.21191C14.7444 4.52376 15.7723 5.16088 16.5811 6.12305L16.7402 6.32031C17.5718 7.39304 17.9873 8.61945 17.9873 10V17.0127H19C19.2802 17.0127 19.5149 17.1067 19.7041 17.2959C19.8933 17.4851 19.9873 17.7198 19.9873 18C19.9873 18.2802 19.8933 18.5149 19.7041 18.7041C19.5149 18.8933 19.2802 18.9873 19 18.9873H5C4.71981 18.9873 4.48511 18.8933 4.2959 18.7041C4.10669 18.5149 4.0127 18.2802 4.0127 18C4.0127 17.7198 4.10669 17.4851 4.2959 17.2959C4.48511 17.1067 4.71981 17.0127 5 17.0127H6.0127V10C6.0127 8.70586 6.3777 7.54707 7.1084 6.52344L7.25977 6.32031C8.09135 5.24756 9.17231 4.54458 10.5029 4.21191L10.5127 4.20996V3.5C10.5127 3.08661 10.657 2.73558 10.9463 2.44629C11.2356 2.15699 11.5866 2.0127 12 2.0127ZM12 5.9873C10.8967 5.9873 9.95167 6.38036 9.16602 7.16602C8.38036 7.95167 7.9873 8.89666 7.9873 10V17.0127H16.0127V10C16.0127 8.89666 15.6196 7.95167 14.834 7.16602C14.0483 6.38036 13.1033 5.9873 12 5.9873Z" fill="#7583D9" stroke="#7583D9" stroke-width="0.025"/>
</g>
</svg>
