<svg width="18" height="20" viewBox="0 0 18 20" fill="none" xmlns="http://www.w3.org/2000/svg">
<path d="M3 2.0125H3.0125V2V1C3.0125 0.719815 3.10713 0.485546 3.29634 0.296339C3.48555 0.107132 3.71981 0.0125 4 0.0125C4.28019 0.0125 4.51445 0.107132 4.70366 0.296339C4.89287 0.485546 4.9875 0.719815 4.9875 1V2V2.0125H5H13H13.0125V2V1C13.0125 0.719815 13.1071 0.485546 13.2963 0.296339C13.4855 0.107132 13.7198 0.0125 14 0.0125C14.2802 0.0125 14.5145 0.107132 14.7037 0.296339C14.8929 0.485546 14.9875 0.719815 14.9875 1V2V2.0125H15H16C16.5467 2.0125 17.0143 2.207 17.4037 2.59634C17.793 2.98568 17.9875 3.45334 17.9875 4V18C17.9875 18.5467 17.793 19.0143 17.4037 19.4037C17.0143 19.793 16.5467 19.9875 16 19.9875H2C1.45334 19.9875 0.98568 19.793 0.596339 19.4037C0.206998 19.0143 0.0125 18.5467 0.0125 18V4C0.0125 3.45334 0.206998 2.98568 0.596339 2.59634C0.98568 2.207 1.45334 2.0125 2 2.0125H3ZM1.9875 18V18.0125H2H16H16.0125V18V8V7.9875H16H2H1.9875V8V18ZM11.5 15.9875C10.8032 15.9875 10.2148 15.7471 9.73384 15.2662C9.25291 14.7852 9.0125 14.1968 9.0125 13.5C9.0125 12.8032 9.25291 12.2148 9.73384 11.7338C10.2148 11.2529 10.8032 11.0125 11.5 11.0125C12.1968 11.0125 12.7852 11.2529 13.2662 11.7338C13.7471 12.2148 13.9875 12.8032 13.9875 13.5C13.9875 14.1968 13.7471 14.7852 13.2662 15.2662C12.7852 15.7471 12.1968 15.9875 11.5 15.9875Z" fill="#46464C" stroke="#46464C" stroke-width="0.025"/>
</svg>
