<svg width="35" height="33" viewBox="0 0 35 33" fill="none" xmlns="http://www.w3.org/2000/svg">
<path d="M4.83088 28.1667L16.5809 24L8.99755 16.4167L4.83088 28.1667ZM34.3726 8.70833C34.1226 8.95833 33.8309 9.08333 33.4976 9.08333C33.1642 9.08333 32.8726 8.95833 32.6226 8.70833L32.4976 8.58333C32.1087 8.19445 31.6225 8 31.0392 8C30.4559 8 29.9698 8.19445 29.5809 8.58333L21.1225 17.0417C20.8725 17.2917 20.5809 17.4167 20.2476 17.4167C19.9142 17.4167 19.6225 17.2917 19.3725 17.0417C19.1225 16.7917 18.9976 16.5 18.9976 16.1667C18.9976 15.8333 19.1225 15.5417 19.3725 15.2917L27.8309 6.83333C28.7198 5.94445 29.7892 5.5 31.0392 5.5C32.2892 5.5 33.3587 5.94445 34.2476 6.83333L34.3726 6.95833C34.6226 7.20833 34.7476 7.5 34.7476 7.83333C34.7476 8.16667 34.6226 8.45833 34.3726 8.70833ZM12.6225 3.70833C12.8725 3.45833 13.1642 3.33333 13.4975 3.33333C13.8309 3.33333 14.1225 3.45833 14.3725 3.70833L14.5809 3.91667C15.4698 4.80556 15.9142 5.86111 15.9142 7.08333C15.9142 8.30556 15.4698 9.36111 14.5809 10.25L14.4559 10.375C14.2059 10.625 13.9142 10.75 13.5809 10.75C13.2475 10.75 12.9559 10.625 12.7059 10.375C12.4559 10.125 12.3309 9.83333 12.3309 9.5C12.3309 9.16667 12.4559 8.875 12.7059 8.625L12.8309 8.5C13.2198 8.11111 13.4142 7.63889 13.4142 7.08333C13.4142 6.52778 13.2198 6.05556 12.8309 5.66667L12.6225 5.45833C12.3725 5.20833 12.2475 4.91667 12.2475 4.58333C12.2475 4.25 12.3725 3.95833 12.6225 3.70833ZM19.3725 0.375C19.6225 0.125 19.9142 0 20.2476 0C20.5809 0 20.8725 0.125 21.1225 0.375L22.9142 2.16667C23.8031 3.05556 24.2475 4.125 24.2475 5.375C24.2475 6.625 23.8031 7.69445 22.9142 8.58333L17.7892 13.7083C17.5392 13.9583 17.2476 14.0833 16.9142 14.0833C16.5809 14.0833 16.2892 13.9583 16.0392 13.7083C15.7892 13.4583 15.6642 13.1667 15.6642 12.8333C15.6642 12.5 15.7892 12.2083 16.0392 11.9583L21.1642 6.83333C21.5531 6.44445 21.7475 5.95833 21.7475 5.375C21.7475 4.79167 21.5531 4.30556 21.1642 3.91667L19.3725 2.125C19.1225 1.875 18.9976 1.58333 18.9976 1.25C18.9976 0.916667 19.1225 0.625 19.3725 0.375ZM32.7059 20.375C32.4559 20.625 32.1642 20.75 31.8309 20.75C31.4976 20.75 31.2059 20.625 30.9559 20.375L29.1642 18.5833C28.7753 18.1944 28.2892 18 27.7059 18C27.1225 18 26.6364 18.1944 26.2475 18.5833L24.4559 20.375C24.2059 20.625 23.9142 20.75 23.5809 20.75C23.2476 20.75 22.9559 20.625 22.7059 20.375C22.4559 20.125 22.3309 19.8333 22.3309 19.5C22.3309 19.1667 22.4559 18.875 22.7059 18.625L24.4975 16.8333C25.3864 15.9444 26.4559 15.5 27.7059 15.5C28.9559 15.5 30.0253 15.9444 30.9142 16.8333L32.7059 18.625C32.9559 18.875 33.0809 19.1667 33.0809 19.5C33.0809 19.8333 32.9559 20.125 32.7059 20.375ZM0.497549 30.3333L6.78922 12.8333C6.92811 12.4722 7.14338 12.1944 7.43505 12C7.72672 11.8056 8.03922 11.7083 8.37255 11.7083C8.59477 11.7083 8.80311 11.75 8.99755 11.8333C9.19199 11.9167 9.37255 12.0417 9.53922 12.2083L20.7892 23.4583C20.9559 23.625 21.0809 23.8056 21.1642 24C21.2475 24.1944 21.2892 24.4028 21.2892 24.625C21.2892 24.9583 21.192 25.2708 20.9976 25.5625C20.8031 25.8542 20.5253 26.0694 20.1642 26.2083L2.66422 32.5C2.33088 32.6389 2.01144 32.6597 1.70588 32.5625C1.40033 32.4653 1.13644 32.3056 0.914216 32.0833C0.691993 31.8611 0.532271 31.5972 0.435049 31.2917C0.337827 30.9861 0.35866 30.6667 0.497549 30.3333Z" fill="#474649"/>
</svg>
