<svg width="23" height="24" viewBox="0 0 23 24" fill="none" xmlns="http://www.w3.org/2000/svg">
<path d="M2.9974 21.3307H12.9141V17.3307H2.9974V21.3307ZM15.7474 21.3307H19.9974V17.3307H15.7474V21.3307ZM2.9974 14.6641H7.2474V10.6974H2.9974V14.6641ZM10.0807 14.6641H19.9974V10.6974H10.0807V14.6641ZM4.83906 8.03073H18.1557L11.4974 3.33073L4.83906 8.03073ZM2.9974 23.9974C2.21823 23.9974 1.55122 23.7363 0.996354 23.2141C0.441493 22.6918 0.164062 22.0641 0.164062 21.3307V9.33073C0.164062 8.90851 0.26441 8.50851 0.465104 8.13073C0.665799 7.75295 0.943229 7.44184 1.2974 7.1974L9.7974 1.1974C10.0571 1.01962 10.3286 0.886285 10.612 0.797396C10.8953 0.708507 11.1905 0.664062 11.4974 0.664062C11.8043 0.664062 12.0995 0.708507 12.3828 0.797396C12.6661 0.886285 12.9377 1.01962 13.1974 1.1974L21.6974 7.1974C22.0516 7.44184 22.329 7.75295 22.5297 8.13073C22.7304 8.50851 22.8307 8.90851 22.8307 9.33073V21.3307C22.8307 22.0641 22.5533 22.6918 21.9984 23.2141C21.4436 23.7363 20.7766 23.9974 19.9974 23.9974H2.9974Z" fill="#262262"/>
</svg>
