<svg width="35" height="34" viewBox="0 0 35 34" fill="none" xmlns="http://www.w3.org/2000/svg">
<path d="M15.1654 20.0026L11.582 16.4193C11.2765 16.1137 10.8876 15.9609 10.4154 15.9609C9.94314 15.9609 9.55425 16.1137 9.2487 16.4193C8.94314 16.7248 8.79037 17.1137 8.79037 17.5859C8.79037 18.0582 8.94314 18.4471 9.2487 18.7526L13.9987 23.5026C14.332 23.8359 14.7209 24.0026 15.1654 24.0026C15.6098 24.0026 15.9987 23.8359 16.332 23.5026L25.7487 14.0859C26.0543 13.7804 26.207 13.3915 26.207 12.9193C26.207 12.447 26.0543 12.0582 25.7487 11.7526C25.4431 11.447 25.0543 11.2943 24.582 11.2943C24.1098 11.2943 23.7209 11.447 23.4154 11.7526L15.1654 20.0026ZM17.4987 33.6693C15.1931 33.6693 13.0265 33.2318 10.9987 32.3568C8.97092 31.4818 7.20703 30.2943 5.70703 28.7943C4.20703 27.2943 3.01953 25.5304 2.14453 23.5026C1.26953 21.4748 0.832031 19.3082 0.832031 17.0026C0.832031 14.697 1.26953 12.5304 2.14453 10.5026C3.01953 8.47483 4.20703 6.71094 5.70703 5.21094C7.20703 3.71094 8.97092 2.52344 10.9987 1.64844C13.0265 0.773438 15.1931 0.335938 17.4987 0.335938C19.8043 0.335938 21.9709 0.773438 23.9987 1.64844C26.0265 2.52344 27.7904 3.71094 29.2904 5.21094C30.7904 6.71094 31.9779 8.47483 32.8529 10.5026C33.7279 12.5304 34.1654 14.697 34.1654 17.0026C34.1654 19.3082 33.7279 21.4748 32.8529 23.5026C31.9779 25.5304 30.7904 27.2943 29.2904 28.7943C27.7904 30.2943 26.0265 31.4818 23.9987 32.3568C21.9709 33.2318 19.8043 33.6693 17.4987 33.6693ZM17.4987 30.3359C21.2209 30.3359 24.3737 29.0443 26.957 26.4609C29.5404 23.8776 30.832 20.7248 30.832 17.0026C30.832 13.2804 29.5404 10.1276 26.957 7.54427C24.3737 4.96094 21.2209 3.66927 17.4987 3.66927C13.7765 3.66927 10.6237 4.96094 8.04037 7.54427C5.45703 10.1276 4.16536 13.2804 4.16536 17.0026C4.16536 20.7248 5.45703 23.8776 8.04037 26.4609C10.6237 29.0443 13.7765 30.3359 17.4987 30.3359Z" fill="#6BBDAE"/>
</svg>
