<svg width="38" height="28" viewBox="0 0 38 28" fill="none" xmlns="http://www.w3.org/2000/svg">
<path d="M17.3346 15.4141L15.8346 16.8724C15.5291 17.178 15.1471 17.3307 14.6888 17.3307C14.2305 17.3307 13.8346 17.1641 13.5013 16.8307C13.1957 16.5252 13.043 16.1363 13.043 15.6641C13.043 15.1918 13.1957 14.803 13.5013 14.4974L17.8346 10.1641C18.168 9.83073 18.5569 9.66406 19.0013 9.66406C19.4457 9.66406 19.8346 9.83073 20.168 10.1641L24.5013 14.4974C24.8069 14.803 24.9666 15.1849 24.9805 15.6432C24.9944 16.1016 24.8346 16.4974 24.5013 16.8307C24.1957 17.1363 23.8138 17.296 23.3555 17.3099C22.8971 17.3238 22.5013 17.178 22.168 16.8724L20.668 15.4141V23.9974H29.8346C31.0013 23.9974 31.9874 23.5946 32.793 22.7891C33.5985 21.9835 34.0013 20.9974 34.0013 19.8307C34.0013 18.6641 33.5985 17.678 32.793 16.8724C31.9874 16.0668 31.0013 15.6641 29.8346 15.6641H27.3346V12.3307C27.3346 10.0252 26.5221 8.0599 24.8971 6.4349C23.2721 4.8099 21.3069 3.9974 19.0013 3.9974C16.6957 3.9974 14.7305 4.8099 13.1055 6.4349C11.4805 8.0599 10.668 10.0252 10.668 12.3307H9.83464C8.22352 12.3307 6.84852 12.9002 5.70964 14.0391C4.57075 15.178 4.0013 16.553 4.0013 18.1641C4.0013 19.7752 4.57075 21.1502 5.70964 22.2891C6.84852 23.428 8.22352 23.9974 9.83464 23.9974H12.3346C12.8069 23.9974 13.2027 24.1571 13.5221 24.4766C13.8416 24.796 14.0013 25.1918 14.0013 25.6641C14.0013 26.1363 13.8416 26.5321 13.5221 26.8516C13.2027 27.171 12.8069 27.3307 12.3346 27.3307H9.83464C7.30686 27.3307 5.14714 26.4557 3.35547 24.7057C1.5638 22.9557 0.667969 20.8168 0.667969 18.2891C0.667969 16.1224 1.32075 14.1918 2.6263 12.4974C3.93186 10.803 5.64019 9.71962 7.7513 9.2474C8.44575 6.69184 9.83464 4.6224 11.918 3.03906C14.0013 1.45573 16.3624 0.664062 19.0013 0.664062C22.2513 0.664062 25.0082 1.79601 27.2721 4.0599C29.536 6.32378 30.668 9.08073 30.668 12.3307C32.5846 12.553 34.1749 13.3793 35.4388 14.8099C36.7027 16.2405 37.3346 17.9141 37.3346 19.8307C37.3346 21.9141 36.6055 23.6849 35.1471 25.1432C33.6888 26.6016 31.918 27.3307 29.8346 27.3307H20.668C19.7513 27.3307 18.9666 27.0043 18.3138 26.3516C17.661 25.6988 17.3346 24.9141 17.3346 23.9974V15.4141Z" fill="#474649"/>
</svg>
