<svg width="31" height="34" viewBox="0 0 31 34" fill="none" xmlns="http://www.w3.org/2000/svg">
<path d="M5.28516 23.6818H5.29766V23.6693V3.66927C5.29766 2.75595 5.62271 1.9744 6.27316 1.32394C6.92361 0.673491 7.70516 0.348438 8.61849 0.348438H26.9518C27.8651 0.348438 28.6467 0.673491 29.2972 1.32394C29.9476 1.9744 30.2727 2.75595 30.2727 3.66927V28.6693C30.2727 30.0549 29.7878 31.2322 28.818 32.2021C27.8481 33.172 26.6708 33.6568 25.2852 33.6568H5.28516C3.89954 33.6568 2.72218 33.172 1.75233 32.2021C0.782477 31.2322 0.297656 30.0549 0.297656 28.6693V27.0026C0.297656 26.0893 0.62271 25.3077 1.27316 24.6573C1.92361 24.0068 2.70516 23.6818 3.61849 23.6818H5.28516ZM26.9643 3.66927V3.65677H26.9518H8.61849H8.60599V3.66927V23.6693V23.6818H8.61849H20.2852C21.1985 23.6818 21.98 24.0068 22.6305 24.6573C23.2809 25.3077 23.606 26.0893 23.606 27.0026V28.6693C23.606 29.1446 23.7669 29.5437 24.0888 29.8656C24.4107 30.1875 24.8098 30.3484 25.2852 30.3484C25.7605 30.3484 26.1596 30.1875 26.4815 29.8656C26.8034 29.5437 26.9643 29.1446 26.9643 28.6693V3.66927ZM20.2852 30.3484H20.2977V30.3359V27.0026V26.9901H20.2852H3.61849H3.60599V27.0026V28.6693C3.60599 29.1446 3.76691 29.5437 4.08882 29.8656C4.33747 30.1143 4.63216 30.2669 4.97249 30.3234H3.61849V30.3359V30.3484H5.28516H20.2852ZM11.9518 11.9901C11.4827 11.9901 11.0901 11.8316 10.7732 11.5146C10.4562 11.1976 10.2977 10.805 10.2977 10.3359C10.2977 9.86686 10.4562 9.47426 10.7732 9.15728C11.0901 8.84029 11.4827 8.68177 11.9518 8.68177H23.6185C24.0876 8.68177 24.4802 8.84029 24.7972 9.15728C25.1141 9.47426 25.2727 9.86686 25.2727 10.3359C25.2727 10.805 25.1141 11.1976 24.7972 11.5146C24.4802 11.8316 24.0876 11.9901 23.6185 11.9901H11.9518ZM11.9518 16.9901C11.4827 16.9901 11.0901 16.8316 10.7732 16.5146C10.4562 16.1976 10.2977 15.805 10.2977 15.3359C10.2977 14.8669 10.4562 14.4743 10.7732 14.1573C11.0901 13.8403 11.4827 13.6818 11.9518 13.6818H23.6185C24.0876 13.6818 24.4802 13.8403 24.7972 14.1573C25.1141 14.4743 25.2727 14.8669 25.2727 15.3359C25.2727 15.805 25.1141 16.1976 24.7972 16.5146C24.4802 16.8316 24.0876 16.9901 23.6185 16.9901H11.9518Z" fill="#6DB0F3" stroke="#7583D9" stroke-width="0.025"/>
</svg>
