<svg width="35" height="34" viewBox="0 0 35 34" fill="none" xmlns="http://www.w3.org/2000/svg">
<path d="M15.8749 0.431039L15.8749 0.431035C11.6558 0.847399 8.09609 2.62375 5.19538 5.76042C2.29478 8.89695 0.844531 12.6439 0.844531 17.0019C0.844531 21.36 2.28785 25.1069 5.17456 28.2435C8.06137 31.3801 11.628 33.1565 15.8749 33.5728L15.8752 33.5729C16.3158 33.6279 16.6939 33.4973 17.0107 33.1806C17.3277 32.8636 17.4862 32.471 17.4862 32.0019C17.4862 31.5605 17.3415 31.1745 17.0518 30.8435C16.7622 30.5125 16.397 30.3195 15.9555 30.2643C15.9555 30.2643 15.9555 30.2643 15.9555 30.2643L15.957 30.2519C12.5959 29.863 9.79037 28.4255 7.54037 25.9394C5.29036 23.4533 4.16536 20.4742 4.16536 17.0019C4.16536 13.5575 5.29036 10.5853 7.54037 8.08526C9.79037 5.58526 12.5959 4.14082 15.957 3.75193L15.8749 0.431039ZM15.8749 0.431039L15.8752 0.430999C16.3158 0.375927 16.6939 0.506523 17.0107 0.823268C17.3277 1.14025 17.4862 1.53285 17.4862 2.00193C17.4862 2.44336 17.3415 2.82932 17.0518 3.16036C16.7622 3.49135 16.3969 3.68433 15.9555 3.73952L15.8749 0.431039ZM19.1529 16.3353H19.1477L19.1565 16.3441L24.1565 21.3441C24.4595 21.6471 24.6112 22.0327 24.6112 22.5019C24.6112 22.9712 24.4595 23.3568 24.1565 23.6598C23.8535 23.9627 23.4679 24.1144 22.9987 24.1144C22.5295 24.1144 22.1439 23.9627 21.8409 23.6598L16.3409 18.1598C16.1753 17.9942 16.0513 17.8081 15.9686 17.6015C15.8859 17.3946 15.8445 17.1809 15.8445 16.9603V10.3353C15.8445 9.86619 16.0031 9.47359 16.32 9.1566C16.637 8.83962 17.0296 8.6811 17.4987 8.6811C17.9678 8.6811 18.3604 8.83962 18.6774 9.1566C18.9943 9.47359 19.1529 9.86619 19.1529 10.3353V16.3353ZM22.9154 5.32276C22.3353 5.32276 21.8454 5.12263 21.445 4.72226C21.0447 4.32189 20.8445 3.83204 20.8445 3.25193C20.8445 2.67182 21.0447 2.18197 21.445 1.7816C21.8454 1.38123 22.3353 1.1811 22.9154 1.1811C23.4955 1.1811 23.9853 1.38123 24.3857 1.7816C24.7861 2.18197 24.9862 2.67182 24.9862 3.25193C24.9862 3.83204 24.7861 4.32189 24.3857 4.72226C23.9853 5.12263 23.4955 5.32276 22.9154 5.32276ZM22.9154 32.8228C22.3353 32.8228 21.8454 32.6226 21.445 32.2223C21.0447 31.8219 20.8445 31.332 20.8445 30.7519C20.8445 30.1718 21.0447 29.682 21.445 29.2816C21.8454 28.8812 22.3353 28.6811 22.9154 28.6811C23.4955 28.6811 23.9853 28.8812 24.3857 29.2816C24.7861 29.682 24.9862 30.1718 24.9862 30.7519C24.9862 31.332 24.7861 31.8219 24.3857 32.2223C23.9853 32.6226 23.4955 32.8228 22.9154 32.8228ZM29.582 11.1561C29.0019 11.1561 28.5121 10.956 28.1117 10.5556C27.7113 10.1552 27.5112 9.66537 27.5112 9.08526C27.5112 8.50516 27.7113 8.01531 28.1117 7.61493C28.5121 7.21456 29.0019 7.01443 29.582 7.01443C30.1621 7.01443 30.652 7.21456 31.0524 7.61493C31.4527 8.01531 31.6529 8.50516 31.6529 9.08526C31.6529 9.66537 31.4527 10.1552 31.0524 10.5556C30.652 10.956 30.1621 11.1561 29.582 11.1561ZM29.582 26.9894C29.0019 26.9894 28.5121 26.7893 28.1117 26.3889C27.7113 25.9886 27.5112 25.4987 27.5112 24.9186C27.5112 24.3385 27.7113 23.8486 28.1117 23.4483C28.5121 23.0479 29.0019 22.8478 29.582 22.8478C30.1621 22.8478 30.652 23.0479 31.0524 23.4483C31.4527 23.8486 31.6529 24.3385 31.6529 24.9186C31.6529 25.4987 31.4527 25.9886 31.0524 26.3889C30.652 26.7893 30.1621 26.9894 29.582 26.9894ZM32.082 19.0728C31.5019 19.0728 31.0121 18.8726 30.6117 18.4723C30.2113 18.0719 30.0112 17.582 30.0112 17.0019C30.0112 16.4218 30.2113 15.932 30.6117 15.5316C31.0121 15.1312 31.5019 14.9311 32.082 14.9311C32.6621 14.9311 33.152 15.1312 33.5524 15.5316C33.9527 15.932 34.1529 16.4218 34.1529 17.0019C34.1529 17.582 33.9527 18.0719 33.5524 18.4723C33.152 18.8726 32.6621 19.0728 32.082 19.0728Z" fill="#F36029" stroke="#F36029" stroke-width="0.025"/>
</svg>
