<svg width="18" height="20" viewBox="0 0 18 20" fill="none" xmlns="http://www.w3.org/2000/svg">
<path d="M5 0.0126953H16C16.4782 0.0126953 16.8962 0.161087 17.2539 0.458984L17.4033 0.59668C17.7927 0.986021 17.9873 1.45334 17.9873 2V17C17.9873 17.8301 17.6972 18.5352 17.1162 19.1162C16.5352 19.6972 15.8301 19.9873 15 19.9873H3C2.16994 19.9873 1.46475 19.6972 0.883789 19.1162C0.302827 18.5352 0.0126953 17.8301 0.0126953 17V16C0.0126953 15.5218 0.161086 15.1038 0.458984 14.7461L0.59668 14.5967C0.986021 14.2073 1.45334 14.0127 2 14.0127H3.0127V2C3.0127 1.5218 3.16109 1.10385 3.45898 0.746094L3.59668 0.59668C3.98602 0.207339 4.45334 0.0126953 5 0.0126953ZM1.9873 17C1.9873 17.2865 2.08419 17.5276 2.27832 17.7217C2.41667 17.86 2.57927 17.9476 2.76465 17.9873H2V18.0127H12.0127V15.9873H1.9873V17ZM4.9873 14.0127H12C12.5467 14.0127 13.014 14.2073 13.4033 14.5967C13.7927 14.986 13.9873 15.4533 13.9873 16V17C13.9873 17.2865 14.0842 17.5276 14.2783 17.7217C14.4724 17.9158 14.7135 18.0127 15 18.0127C15.2865 18.0127 15.5276 17.9158 15.7217 17.7217C15.9158 17.5276 16.0127 17.2865 16.0127 17V1.9873H4.9873V14.0127ZM7 8.0127H14C14.2802 8.0127 14.5149 8.10669 14.7041 8.2959C14.8933 8.48511 14.9873 8.71981 14.9873 9C14.9873 9.28019 14.8933 9.51489 14.7041 9.7041C14.5149 9.89331 14.2802 9.9873 14 9.9873H7C6.71981 9.9873 6.48511 9.89331 6.2959 9.7041C6.10669 9.51489 6.0127 9.28019 6.0127 9C6.0127 8.71981 6.10669 8.48511 6.2959 8.2959C6.48511 8.10669 6.71981 8.0127 7 8.0127ZM7 5.0127H14C14.2802 5.0127 14.5149 5.10669 14.7041 5.2959C14.8933 5.48511 14.9873 5.71981 14.9873 6C14.9873 6.28019 14.8933 6.51489 14.7041 6.7041C14.5149 6.89331 14.2802 6.9873 14 6.9873H7C6.71981 6.9873 6.48511 6.89331 6.2959 6.7041C6.10669 6.51489 6.0127 6.28019 6.0127 6C6.0127 5.71981 6.10669 5.48511 6.2959 5.2959C6.48511 5.10669 6.71981 5.0127 7 5.0127Z" fill="#6DB0F3" stroke="#7583D9" stroke-width="0.025"/>
</svg>
