<svg width="20" height="20" viewBox="0 0 20 20" fill="none" xmlns="http://www.w3.org/2000/svg">
<path d="M9.02637 0.0585938C9.28917 0.0257437 9.51513 0.104002 9.7041 0.292969C9.89302 0.482038 9.98722 0.716223 9.9873 0.996094C9.9873 1.25971 9.90147 1.49078 9.72852 1.68848C9.57713 1.86148 9.39074 1.97077 9.16992 2.01758L9.07324 2.03418C7.0538 2.26791 5.36757 3.13561 4.01562 4.6377C2.66359 6.13996 1.98739 7.92658 1.9873 9.99609C1.9873 11.9522 2.58191 13.6485 3.77051 15.084L4.01562 15.3672C5.28326 16.7678 6.84473 17.6143 8.69922 17.9072L9.07324 17.959C9.3369 17.9919 9.55556 18.107 9.72852 18.3047C9.90132 18.5023 9.98722 18.7327 9.9873 18.9961C9.9873 19.2762 9.89318 19.511 9.7041 19.7002C9.53868 19.8656 9.34494 19.946 9.12305 19.9414L9.02637 19.9336C6.63856 19.6995 4.60931 18.749 2.93848 17.0811L2.60938 16.7383C0.878217 14.8573 0.0126953 12.6097 0.0126953 9.99609C0.0127737 7.54612 0.777043 5.41846 2.30566 3.6123L2.62207 3.25488C4.25296 1.49144 6.23089 0.444851 8.55664 0.115234L9.02637 0.0585938ZM13.25 17.0088C13.5968 17.0088 13.8896 17.1289 14.1289 17.3682C14.3679 17.6073 14.4872 17.8996 14.4873 18.2461C14.4873 18.5928 14.368 18.8858 14.1289 19.125C13.8896 19.3643 13.5968 19.4844 13.25 19.4844C12.9032 19.4844 12.6104 19.3643 12.3711 19.125C12.132 18.8858 12.0127 18.5928 12.0127 18.2461C12.0128 17.8996 12.1321 17.6073 12.3711 17.3682C12.6104 17.1289 12.9032 17.0088 13.25 17.0088ZM17.25 13.5088C17.5968 13.5088 17.8896 13.6289 18.1289 13.8682C18.3679 14.1073 18.4872 14.3996 18.4873 14.7461C18.4873 15.0928 18.368 15.3858 18.1289 15.625C17.8896 15.8643 17.5968 15.9844 17.25 15.9844C16.9032 15.9844 16.6104 15.8643 16.3711 15.625C16.132 15.3858 16.0127 15.0928 16.0127 14.7461C16.0128 14.3996 16.1321 14.1073 16.3711 13.8682C16.6104 13.6289 16.9032 13.5088 17.25 13.5088ZM10 5.00879C10.2802 5.00879 10.5149 5.10376 10.7041 5.29297C10.893 5.48204 10.9872 5.71622 10.9873 5.99609V9.59668H10.9824L13.9912 12.6055C14.1719 12.7862 14.2627 13.0166 14.2627 13.2969C14.2626 13.577 14.1718 13.8067 13.9912 13.9873C13.8105 14.1681 13.5802 14.2588 13.2998 14.2588C13.0544 14.2588 12.8477 14.1894 12.6787 14.0508L12.6084 13.9873L9.30859 10.6875C9.20989 10.5887 9.13622 10.4777 9.08691 10.3545C9.03752 10.231 9.01272 10.1033 9.0127 9.97168V5.99609C9.01278 5.71622 9.10698 5.48204 9.2959 5.29297C9.48511 5.10376 9.71981 5.00879 10 5.00879ZM18.75 8.75879C19.0968 8.75879 19.3896 8.8789 19.6289 9.11816C19.8679 9.35728 19.9872 9.64963 19.9873 9.99609C19.9873 10.3428 19.868 10.6358 19.6289 10.875C19.3896 11.1143 19.0968 11.2344 18.75 11.2344C18.4032 11.2344 18.1104 11.1143 17.8711 10.875C17.632 10.6358 17.5127 10.3428 17.5127 9.99609C17.5128 9.64963 17.6321 9.35728 17.8711 9.11816C18.1104 8.8789 18.4032 8.75879 18.75 8.75879ZM17.25 4.00879C17.5968 4.00879 17.8896 4.1289 18.1289 4.36816C18.3679 4.60728 18.4872 4.89963 18.4873 5.24609C18.4873 5.59278 18.368 5.88577 18.1289 6.125C17.8896 6.36426 17.5968 6.48438 17.25 6.48438C16.9032 6.48438 16.6104 6.36426 16.3711 6.125C16.132 5.88577 16.0127 5.59278 16.0127 5.24609C16.0128 4.89963 16.1321 4.60728 16.3711 4.36816C16.6104 4.1289 16.9032 4.00879 17.25 4.00879ZM13.25 0.508789C13.5968 0.508789 13.8896 0.628904 14.1289 0.868164C14.3679 1.10728 14.4872 1.39963 14.4873 1.74609C14.4873 2.09278 14.368 2.38577 14.1289 2.625C13.8896 2.86426 13.5968 2.98438 13.25 2.98438C12.9032 2.98438 12.6104 2.86426 12.3711 2.625C12.132 2.38577 12.0127 2.09278 12.0127 1.74609C12.0128 1.39963 12.1321 1.10728 12.3711 0.868164C12.6104 0.628904 12.9032 0.508789 13.25 0.508789Z" fill="#F36029" stroke="#F36029" stroke-width="0.025"/>
</svg>
