<svg width="28" height="28" viewBox="0 0 28 28" fill="none" xmlns="http://www.w3.org/2000/svg">
<path d="M12.0859 16.0521H2.5026C1.95955 16.0521 1.50434 15.8684 1.13698 15.501C0.769618 15.1337 0.585938 14.6785 0.585938 14.1354C0.585938 13.5924 0.769618 13.1372 1.13698 12.7698C1.50434 12.4024 1.95955 12.2188 2.5026 12.2188H12.0859V2.63542C12.0859 2.09236 12.2696 1.63715 12.637 1.26979C13.0043 0.902431 13.4595 0.71875 14.0026 0.71875C14.5457 0.71875 15.0009 0.902431 15.3682 1.26979C15.7356 1.63715 15.9193 2.09236 15.9193 2.63542V12.2188H25.5026C26.0457 12.2188 26.5009 12.4024 26.8682 12.7698C27.2356 13.1372 27.4193 13.5924 27.4193 14.1354C27.4193 14.6785 27.2356 15.1337 26.8682 15.501C26.5009 15.8684 26.0457 16.0521 25.5026 16.0521H15.9193V25.6354C15.9193 26.1785 15.7356 26.6337 15.3682 27.001C15.0009 27.3684 14.5457 27.5521 14.0026 27.5521C13.4595 27.5521 13.0043 27.3684 12.637 27.001C12.2696 26.6337 12.0859 26.1785 12.0859 25.6354V16.0521Z" fill="white"/>
</svg>
