<svg width="27" height="29" viewBox="0 0 27 29" fill="none" xmlns="http://www.w3.org/2000/svg">
<path d="M0.75 21.8693C0.75 21.4915 0.873958 21.1727 1.12188 20.913C1.36979 20.6533 1.67083 20.5234 2.025 20.5234C2.21389 20.5234 2.39688 20.553 2.57396 20.612C2.75104 20.671 2.92222 20.7596 3.0875 20.8776C3.39444 21.0665 3.70139 21.2318 4.00833 21.3734C4.31528 21.5151 4.64583 21.5859 5 21.5859C5.77917 21.5859 6.44618 21.3085 7.00104 20.7536C7.5559 20.1988 7.83333 19.5318 7.83333 18.7526C7.83333 17.9734 7.5559 17.3064 7.00104 16.7516C6.44618 16.1967 5.77917 15.9193 5 15.9193C4.64583 15.9193 4.30347 15.9783 3.97292 16.0964C3.64236 16.2144 3.34722 16.3915 3.0875 16.6276C2.94583 16.7457 2.78056 16.8342 2.59167 16.8932C2.40278 16.9523 2.21389 16.9818 2.025 16.9818C1.67083 16.9818 1.36979 16.8519 1.12188 16.5922C0.873958 16.3325 0.75 16.0137 0.75 15.6359V10.2526C0.75 9.85122 0.885764 9.51476 1.15729 9.24323C1.42882 8.9717 1.76528 8.83594 2.16667 8.83594H7.47917C7.36111 8.48177 7.27257 8.1276 7.21354 7.77344C7.15451 7.41927 7.125 7.0651 7.125 6.71094C7.125 4.9401 7.74479 3.4349 8.98438 2.19531C10.224 0.955729 11.7292 0.335938 13.5 0.335938C15.2708 0.335938 16.776 0.955729 18.0156 2.19531C19.2552 3.4349 19.875 4.9401 19.875 6.71094C19.875 7.0651 19.8455 7.41927 19.7865 7.77344C19.7274 8.1276 19.6389 8.48177 19.5208 8.83594H24.8333C25.2347 8.83594 25.5712 8.9717 25.8427 9.24323C26.1142 9.51476 26.25 9.85122 26.25 10.2526V15.6359C26.25 16.0373 26.1142 16.3738 25.8427 16.6453C25.5712 16.9168 25.2347 17.0526 24.8333 17.0526C24.6444 17.0526 24.4792 17.0113 24.3375 16.9286C24.1958 16.846 24.0542 16.7457 23.9125 16.6276C23.6528 16.3915 23.3576 16.2144 23.0271 16.0964C22.6965 15.9783 22.3542 15.9193 22 15.9193C21.2208 15.9193 20.5538 16.1967 19.999 16.7516C19.4441 17.3064 19.1667 17.9734 19.1667 18.7526C19.1667 19.5318 19.4441 20.1988 19.999 20.7536C20.5538 21.3085 21.2208 21.5859 22 21.5859C22.3542 21.5859 22.6965 21.5269 23.0271 21.4089C23.3576 21.2908 23.6528 21.1137 23.9125 20.8776C24.0306 20.7596 24.1663 20.6592 24.3198 20.5766C24.4733 20.4939 24.6444 20.4526 24.8333 20.4526C25.2347 20.4526 25.5712 20.5884 25.8427 20.8599C26.1142 21.1314 26.25 21.4679 26.25 21.8693V27.2526C26.25 27.654 26.1142 27.9905 25.8427 28.262C25.5712 28.5335 25.2347 28.6693 24.8333 28.6693H2.16667C1.76528 28.6693 1.42882 28.5335 1.15729 28.262C0.885764 27.9905 0.75 27.654 0.75 27.2526V21.8693ZM3.58333 25.8359H23.4167V24.2068C23.1806 24.2776 22.9503 24.3307 22.726 24.3661C22.5017 24.4016 22.2597 24.4193 22 24.4193C20.4417 24.4193 19.1076 23.8644 17.9979 22.7547C16.8882 21.645 16.3333 20.3109 16.3333 18.7526C16.3333 17.1943 16.8882 15.8602 17.9979 14.7505C19.1076 13.6408 20.4417 13.0859 22 13.0859C22.2597 13.0859 22.5017 13.1036 22.726 13.1391C22.9503 13.1745 23.1806 13.2276 23.4167 13.2984V11.6693H16.9708C16.5694 11.6693 16.233 11.5394 15.9615 11.2797C15.6899 11.02 15.5542 10.7012 15.5542 10.3234C15.5542 10.1345 15.5837 9.93976 15.6427 9.73906C15.7017 9.53837 15.8139 9.37899 15.9792 9.26094C16.3806 8.9776 16.658 8.60573 16.8115 8.14531C16.9649 7.6849 17.0417 7.20677 17.0417 6.71094C17.0417 5.71927 16.6993 4.88108 16.0146 4.19635C15.3299 3.51163 14.4917 3.16927 13.5 3.16927C12.5083 3.16927 11.6701 3.51163 10.9854 4.19635C10.3007 4.88108 9.95833 5.71927 9.95833 6.71094C9.95833 7.20677 10.0351 7.6849 10.1885 8.14531C10.342 8.60573 10.6194 8.9776 11.0208 9.26094C11.1861 9.37899 11.2983 9.52656 11.3573 9.70365C11.4163 9.88073 11.4458 10.0637 11.4458 10.2526C11.4458 10.654 11.3101 10.9905 11.0385 11.262C10.767 11.5335 10.4306 11.6693 10.0292 11.6693H3.58333V13.2984C3.81944 13.2276 4.04965 13.1745 4.27396 13.1391C4.49826 13.1036 4.74028 13.0859 5 13.0859C6.55833 13.0859 7.89236 13.6408 9.00208 14.7505C10.1118 15.8602 10.6667 17.1943 10.6667 18.7526C10.6667 20.3109 10.1118 21.645 9.00208 22.7547C7.89236 23.8644 6.55833 24.4193 5 24.4193C4.74028 24.4193 4.49826 24.4016 4.27396 24.3661C4.04965 24.3307 3.81944 24.2776 3.58333 24.2068V25.8359Z" fill="#262262"/>
</svg>
