<svg width="800" height="800" viewBox="0 0 800 800" fill="none" xmlns="http://www.w3.org/2000/svg">
<g clip-path="url(#clip0_878_1033)">
<path fill-rule="evenodd" clip-rule="evenodd" d="M600 200H200C186.175 200 175 211.2 175 225C175 238.825 186.175 250 200 250H600C613.825 250 625 238.825 625 225C625 211.2 613.825 200 600 200ZM750 700C750 727.475 722.85 750.3 695.425 750.3H99.35C71.925 750.3 49.675 728.05 49.675 700.575V104.125C49.675 76.65 72.55 50 100 50H700C727.45 50 750 72.55 750 100V700ZM700 0H100C45.15 0 0 49.225 0 104.125V700.575C0 755.5 44.475 800 99.35 800H695.425C750.3 800 800 754.9 800 700V100C800 45.1 754.85 0 700 0ZM600 500H200C186.175 500 175 511.2 175 525C175 538.825 186.175 550 200 550H600C613.825 550 625 538.825 625 525C625 511.2 613.825 500 600 500ZM600 350H200C186.175 350 175 361.2 175 375C175 388.825 186.175 400 200 400H600C613.825 400 625 388.825 625 375C625 361.2 613.825 350 600 350Z" fill="#20005E"/>
</g>
<defs>
<clipPath id="clip0_878_1033">
<rect width="800" height="800" fill="white"/>
</clipPath>
</defs>
</svg>
