<svg width="21" height="30" viewBox="0 0 21 30" fill="none" xmlns="http://www.w3.org/2000/svg">
<path d="M3.41927 29.1693C2.6401 29.1693 1.97309 28.8918 1.41823 28.337C0.863368 27.7821 0.585938 27.1151 0.585938 26.3359V15.0026C0.585938 12.9957 1.11128 11.2012 2.16198 9.61927C3.21267 8.03733 4.57622 6.85677 6.2526 6.0776V5.08594C6.2526 3.90538 6.6658 2.90191 7.49219 2.07552C8.31858 1.24913 9.32205 0.835938 10.5026 0.835938C11.6832 0.835938 12.6866 1.24913 13.513 2.07552C14.3394 2.90191 14.7526 3.90538 14.7526 5.08594V6.0776C16.429 6.85677 17.7925 8.03733 18.8432 9.61927C19.8939 11.2012 20.4193 12.9957 20.4193 15.0026V26.3359C20.4193 27.1151 20.1418 27.7821 19.587 28.337C19.0321 28.8918 18.3651 29.1693 17.5859 29.1693H3.41927ZM3.41927 26.3359H17.5859V15.0026C17.5859 13.0429 16.8953 11.3724 15.5141 9.99115C14.1328 8.6099 12.4623 7.91927 10.5026 7.91927C8.54288 7.91927 6.8724 8.6099 5.49115 9.99115C4.1099 11.3724 3.41927 13.0429 3.41927 15.0026V26.3359ZM14.7526 20.6693C15.154 20.6693 15.4905 20.5335 15.762 20.262C16.0335 19.9905 16.1693 19.654 16.1693 19.2526V15.0026H4.83594V17.8359H13.3359V19.2526C13.3359 19.654 13.4717 19.9905 13.7432 20.262C14.0148 20.5335 14.3512 20.6693 14.7526 20.6693ZM9.08594 5.2276C9.34566 5.18038 9.58177 5.14497 9.79427 5.12135C10.0068 5.09774 10.2429 5.08594 10.5026 5.08594C10.7623 5.08594 10.9984 5.09774 11.2109 5.12135C11.4234 5.14497 11.6595 5.18038 11.9193 5.2276V5.08594C11.9193 4.68455 11.7835 4.34809 11.512 4.07656C11.2405 3.80504 10.904 3.66927 10.5026 3.66927C10.1012 3.66927 9.76476 3.80504 9.49323 4.07656C9.2217 4.34809 9.08594 4.68455 9.08594 5.08594V5.2276Z" fill="#262262"/>
</svg>
