<svg width="31" height="24" viewBox="0 0 31 24" fill="none" xmlns="http://www.w3.org/2000/svg">
<path d="M6.06875 19.7005C5.59653 19.4561 5.23056 19.1283 4.97083 18.7172C4.71111 18.3061 4.58125 17.845 4.58125 17.3339V10.9339L1.18125 9.16719C0.921528 9.03385 0.732639 8.86719 0.614583 8.66719C0.496528 8.46719 0.4375 8.24497 0.4375 8.00052C0.4375 7.75608 0.496528 7.53385 0.614583 7.33385C0.732639 7.13385 0.921528 6.96719 1.18125 6.83385L13.1521 0.700521C13.3646 0.58941 13.583 0.506076 13.8073 0.450521C14.0316 0.394965 14.2618 0.367188 14.4979 0.367188C14.734 0.367188 14.9642 0.394965 15.1885 0.450521C15.4129 0.506076 15.6313 0.58941 15.8438 0.700521L29.3375 7.63385C29.5736 7.74497 29.7566 7.90608 29.8865 8.11719C30.0163 8.3283 30.0813 8.55608 30.0813 8.80052V17.3339C30.0813 17.7116 29.9455 18.0283 29.674 18.2839C29.4024 18.5394 29.066 18.6672 28.6646 18.6672C28.2632 18.6672 27.9267 18.5394 27.6552 18.2839C27.3837 18.0283 27.2479 17.7116 27.2479 17.3339V9.46719L24.4146 10.9339V17.3339C24.4146 17.845 24.2847 18.3061 24.025 18.7172C23.7653 19.1283 23.3993 19.4561 22.9271 19.7005L15.8438 23.3005C15.6313 23.4116 15.4129 23.495 15.1885 23.5505C14.9642 23.6061 14.734 23.6339 14.4979 23.6339C14.2618 23.6339 14.0316 23.6061 13.8073 23.5505C13.583 23.495 13.3646 23.4116 13.1521 23.3005L6.06875 19.7005ZM14.4979 12.9339L24.2021 8.00052L14.4979 3.06719L4.79375 8.00052L14.4979 12.9339ZM14.4979 20.9672L21.5813 17.3672V12.3339L15.8792 15.3005C15.6667 15.4116 15.4424 15.495 15.2063 15.5505C14.9701 15.6061 14.734 15.6339 14.4979 15.6339C14.2618 15.6339 14.0257 15.6061 13.7896 15.5505C13.5535 15.495 13.3292 15.4116 13.1167 15.3005L7.41458 12.3339V17.3672L14.4979 20.9672Z" fill="#262262"/>
</svg>
