<svg width="438" height="684" viewBox="0 0 438 684" fill="none" xmlns="http://www.w3.org/2000/svg">
<path d="M45.7499 668.53C45.1999 668.08 44.58 667.71 43.9 667.42C43.21 667.13 42.4999 666.89 41.7499 666.72L39.9099 666.26C39.5099 666.16 39.11 666.05 38.71 665.9C38.31 665.76 37.9499 665.58 37.6299 665.38C37.2999 665.17 37.0499 664.92 36.8599 664.62C36.6699 664.32 36.58 663.96 36.58 663.55C36.58 663.06 36.7299 662.62 37.0099 662.23C37.2899 661.85 37.6999 661.54 38.2299 661.32C38.7599 661.1 39.4 660.98 40.14 660.98C41.2 660.98 42.0599 661.21 42.7199 661.68C43.3799 662.15 43.7599 662.8 43.8499 663.64H47.28C47.26 662.53 46.9499 661.55 46.3499 660.7C45.7499 659.85 44.9199 659.18 43.8699 658.69C42.8199 658.21 41.59 657.96 40.2 657.96C38.81 657.96 37.5899 658.2 36.4999 658.69C35.4099 659.17 34.5499 659.85 33.9199 660.72C33.2899 661.59 32.9699 662.61 32.9699 663.76C32.9699 665.17 33.4399 666.3 34.3799 667.15C35.3199 668 36.5999 668.63 38.2199 669.05L40.46 669.63C41.16 669.81 41.7799 670.01 42.3099 670.24C42.8399 670.47 43.2499 670.75 43.5399 671.09C43.8299 671.43 43.9799 671.85 43.9899 672.36C43.9899 672.92 43.8099 673.42 43.4799 673.83C43.1499 674.24 42.6899 674.58 42.0999 674.81C41.5099 675.04 40.8299 675.16 40.0599 675.16C39.2899 675.16 38.6499 675.05 38.0499 674.82C37.4499 674.6 36.97 674.26 36.59 673.8C36.21 673.34 36.01 672.78 35.96 672.09H32.45C32.5 673.4 32.8399 674.5 33.4699 675.41C34.0999 676.32 34.9799 677.01 36.0999 677.48C37.2199 677.95 38.55 678.19 40.08 678.19C41.61 678.19 42.9999 677.95 44.1099 677.46C45.2199 676.97 46.0699 676.29 46.6599 675.41C47.2499 674.53 47.5399 673.52 47.5399 672.37C47.5399 671.52 47.3799 670.78 47.0599 670.14C46.7399 669.51 46.3099 668.97 45.7599 668.52L45.7499 668.53Z" fill="#5A999B"/>
<path d="M57.1799 675.13C56.9999 675.16 56.8 675.18 56.58 675.18C56.29 675.18 56.0299 675.14 55.7899 675.05C55.5499 674.96 55.3599 674.79 55.2199 674.55C55.0799 674.31 54.9999 673.95 54.9999 673.48V665.85H57.9099V663.16H54.9999V659.63H51.52V663.16H49.4299V665.85H51.52V674.05C51.52 674.97 51.7099 675.74 52.1199 676.36C52.5299 676.98 53.08 677.43 53.78 677.72C54.48 678.01 55.2599 678.14 56.1299 678.12C56.6199 678.11 57.0399 678.06 57.3799 677.99C57.7199 677.91 57.9899 677.84 58.1699 677.78L57.58 675.06C57.48 675.09 57.3399 675.11 57.1599 675.15L57.1799 675.13Z" fill="#5A999B"/>
<path d="M70.23 671.7C70.23 672.45 70.0701 673.07 69.7601 673.57C69.4501 674.07 69.0501 674.44 68.5701 674.69C68.0901 674.94 67.5901 675.06 67.0801 675.06C66.2501 675.06 65.5701 674.78 65.0601 674.23C64.5501 673.68 64.29 672.94 64.29 672V663.14H60.8101V672.53C60.8101 673.71 61.0201 674.71 61.4301 675.54C61.8501 676.37 62.42 677 63.16 677.43C63.9 677.86 64.75 678.08 65.72 678.08C66.83 678.08 67.7601 677.82 68.5201 677.29C69.2801 676.77 69.82 676.09 70.16 675.26H70.3101V677.88H73.6801V663.13H70.2001V671.68L70.23 671.7Z" fill="#5A999B"/>
<path d="M87.1199 658.24V665.59H86.9799C86.7999 665.23 86.5499 664.85 86.2199 664.44C85.8899 664.04 85.45 663.69 84.89 663.4C84.34 663.11 83.6299 662.96 82.7599 662.96C81.6299 662.96 80.5999 663.25 79.6799 663.83C78.7599 664.41 78.0299 665.26 77.4799 666.39C76.9399 667.52 76.6699 668.91 76.6699 670.55C76.6699 672.19 76.9399 673.54 77.4699 674.68C77.9999 675.81 78.72 676.68 79.64 677.27C80.56 677.87 81.5899 678.16 82.7499 678.16C83.5999 678.16 84.2999 678.02 84.8599 677.74C85.4099 677.46 85.86 677.12 86.2 676.72C86.54 676.32 86.7999 675.94 86.9799 675.58H87.1899V677.91H90.6099V658.24H87.1199ZM86.7899 673.04C86.5199 673.75 86.1199 674.31 85.5999 674.71C85.0899 675.11 84.4599 675.31 83.7199 675.31C82.9799 675.31 82.3199 675.11 81.7999 674.69C81.2699 674.28 80.8799 673.71 80.6099 672.99C80.3499 672.27 80.2199 671.45 80.2199 670.53C80.2199 669.61 80.3499 668.8 80.6099 668.09C80.8699 667.38 81.26 666.82 81.78 666.42C82.3 666.02 82.9499 665.81 83.7199 665.81C84.4899 665.81 85.0999 666.01 85.6199 666.4C86.1299 666.79 86.5199 667.34 86.7899 668.04C87.0599 668.75 87.1899 669.57 87.1899 670.53C87.1899 671.49 87.0599 672.32 86.7899 673.04Z" fill="#5A999B"/>
<path d="M107.42 670.41C107.42 669.12 107.24 668 106.88 667.07C106.52 666.13 106.03 665.36 105.41 664.75C104.78 664.14 104.06 663.69 103.25 663.4C102.44 663.11 101.58 662.96 100.67 662.96C99.2699 662.96 98.0399 663.28 96.9999 663.93C95.9499 664.57 95.1399 665.47 94.5599 666.62C93.9799 667.76 93.6899 669.1 93.6899 670.62C93.6899 672.14 93.9799 673.5 94.5599 674.64C95.1299 675.77 95.96 676.65 97.03 677.27C98.1 677.88 99.3799 678.19 100.86 678.19C102 678.19 103.02 678.02 103.91 677.67C104.8 677.32 105.53 676.83 106.11 676.19C106.68 675.55 107.07 674.81 107.27 673.95L104.03 673.58C103.87 674 103.65 674.35 103.35 674.63C103.04 674.91 102.69 675.13 102.28 675.27C101.87 675.41 101.41 675.49 100.91 675.49C100.15 675.49 99.4899 675.32 98.9299 675C98.3599 674.68 97.9199 674.21 97.6099 673.6C97.3099 673.01 97.16 672.3 97.14 671.48H107.42V670.41ZM97.15 669.14C97.19 668.56 97.3299 668.02 97.5999 667.53C97.8899 666.97 98.3099 666.53 98.8499 666.18C99.3899 665.84 100.01 665.67 100.72 665.67C101.39 665.67 101.97 665.82 102.48 666.12C102.98 666.42 103.37 666.83 103.65 667.35C103.93 667.88 104.08 668.47 104.08 669.14H97.15Z" fill="#5A999B"/>
<path d="M120.92 663.61C120.16 663.17 119.27 662.96 118.26 662.96C117.16 662.96 116.24 663.2 115.49 663.69C114.74 664.18 114.2 664.83 113.86 665.66H113.69V663.15H110.37V677.9H113.85V669.26C113.85 668.55 113.98 667.94 114.25 667.44C114.52 666.94 114.88 666.56 115.36 666.29C115.83 666.02 116.37 665.89 116.98 665.89C117.88 665.89 118.58 666.17 119.09 666.73C119.6 667.29 119.85 668.06 119.85 669.04V677.9H123.33V668.51C123.33 667.33 123.13 666.33 122.71 665.5C122.29 664.67 121.7 664.04 120.94 663.61H120.92Z" fill="#5A999B"/>
<path d="M133.48 675.13C133.3 675.16 133.1 675.18 132.88 675.18C132.59 675.18 132.33 675.14 132.09 675.05C131.85 674.96 131.66 674.79 131.52 674.55C131.38 674.31 131.3 673.95 131.3 673.48V665.85H134.21V663.16H131.3V659.63H127.82V663.16H125.73V665.85H127.82V674.05C127.82 674.97 128.01 675.74 128.42 676.36C128.83 676.98 129.38 677.43 130.08 677.72C130.78 678.01 131.56 678.14 132.43 678.12C132.92 678.11 133.34 678.06 133.68 677.99C134.02 677.91 134.29 677.84 134.47 677.78L133.88 675.06C133.78 675.09 133.64 675.11 133.46 675.15L133.48 675.13Z" fill="#5A999B"/>
<path d="M154.76 670.1C154.89 670.05 155.02 670.01 155.14 669.95C156.18 669.45 156.97 668.73 157.5 667.81C158.03 666.88 158.3 665.79 158.3 664.53C158.3 663.27 158.04 662.17 157.51 661.23C156.98 660.28 156.2 659.55 155.17 659.02C154.15 658.5 152.88 658.24 151.37 658.24H143.99V677.91H147.55V670.7H151.18L155.05 677.91H159.02L154.76 670.1ZM154.26 666.29C153.99 666.77 153.57 667.13 153.01 667.37C152.45 667.62 151.72 667.74 150.84 667.74H147.55V661.21H150.82C151.71 661.21 152.44 661.34 153 661.6C153.56 661.86 153.98 662.24 154.26 662.73C154.53 663.23 154.67 663.83 154.67 664.53C154.67 665.23 154.53 665.81 154.26 666.29Z" fill="#5A999B"/>
<path d="M173.86 666.58C173.28 665.44 172.46 664.55 171.4 663.91C170.35 663.28 169.1 662.96 167.66 662.96C166.22 662.96 164.97 663.28 163.91 663.91C162.85 664.55 162.04 665.44 161.46 666.58C160.88 667.73 160.59 669.06 160.59 670.59C160.59 672.12 160.88 673.44 161.46 674.58C162.04 675.72 162.85 676.61 163.91 677.24C164.97 677.88 166.22 678.19 167.66 678.19C169.1 678.19 170.35 677.88 171.4 677.24C172.46 676.61 173.28 675.72 173.86 674.58C174.44 673.44 174.73 672.11 174.73 670.59C174.73 669.07 174.44 667.73 173.86 666.58ZM170.81 673.02C170.55 673.75 170.16 674.33 169.63 674.76C169.11 675.19 168.46 675.41 167.68 675.41C166.9 675.41 166.21 675.19 165.68 674.76C165.15 674.33 164.76 673.75 164.5 673.02C164.24 672.29 164.11 671.47 164.11 670.58C164.11 669.69 164.24 668.86 164.5 668.12C164.76 667.39 165.15 666.81 165.68 666.37C166.21 665.94 166.87 665.72 167.68 665.72C168.49 665.72 169.11 665.94 169.63 666.37C170.16 666.81 170.55 667.39 170.81 668.12C171.07 668.86 171.2 669.67 171.2 670.58C171.2 671.49 171.07 672.29 170.81 673.02Z" fill="#5A999B"/>
<path d="M185.49 669.49L182.97 668.95C182.22 668.78 181.68 668.56 181.36 668.29C181.04 668.02 180.88 667.67 180.88 667.24C180.88 666.74 181.12 666.33 181.61 666.02C182.1 665.71 182.71 665.55 183.43 665.55C183.97 665.55 184.42 665.64 184.79 665.81C185.16 665.98 185.46 666.21 185.68 666.49C185.9 666.77 186.06 667.07 186.15 667.39L189.32 667.04C189.08 665.79 188.47 664.79 187.47 664.05C186.47 663.31 185.11 662.95 183.38 662.95C182.2 662.95 181.16 663.13 180.26 663.5C179.36 663.87 178.66 664.39 178.16 665.06C177.66 665.73 177.41 666.52 177.42 667.43C177.42 668.51 177.75 669.39 178.43 670.1C179.11 670.8 180.16 671.3 181.57 671.59L184.09 672.12C184.77 672.27 185.27 672.48 185.59 672.75C185.91 673.03 186.07 673.37 186.07 673.8C186.07 674.3 185.82 674.72 185.32 675.06C184.82 675.4 184.15 675.57 183.33 675.57C182.51 675.57 181.88 675.4 181.38 675.06C180.88 674.72 180.56 674.22 180.4 673.55L177.01 673.88C177.22 675.24 177.88 676.3 178.98 677.05C180.08 677.81 181.53 678.19 183.34 678.19C184.57 678.19 185.66 677.99 186.61 677.59C187.56 677.19 188.3 676.64 188.83 675.93C189.36 675.22 189.63 674.4 189.64 673.48C189.64 672.42 189.29 671.57 188.61 670.92C187.93 670.27 186.89 669.79 185.49 669.49Z" fill="#5A999B"/>
<path d="M199.14 675.13C198.96 675.16 198.76 675.18 198.54 675.18C198.25 675.18 197.99 675.14 197.75 675.05C197.51 674.96 197.32 674.79 197.18 674.55C197.04 674.31 196.96 673.95 196.96 673.48V665.85H199.87V663.16H196.96V659.63H193.48V663.16H191.39V665.85H193.48V674.05C193.48 674.97 193.67 675.74 194.08 676.36C194.49 676.98 195.04 677.43 195.74 677.72C196.44 678.01 197.22 678.14 198.09 678.12C198.58 678.11 199 678.06 199.34 677.99C199.68 677.91 199.95 677.84 200.13 677.78L199.54 675.06C199.44 675.09 199.3 675.11 199.12 675.15L199.14 675.13Z" fill="#5A999B"/>
<path d="M215.73 670.41C215.73 669.12 215.55 668 215.19 667.07C214.83 666.13 214.34 665.36 213.71 664.75C213.09 664.14 212.37 663.69 211.56 663.4C210.75 663.11 209.89 662.96 208.98 662.96C207.58 662.96 206.35 663.28 205.3 663.93C204.26 664.57 203.45 665.47 202.87 666.62C202.29 667.76 202 669.1 202 670.62C202 672.14 202.29 673.5 202.87 674.64C203.44 675.77 204.27 676.65 205.34 677.27C206.41 677.88 207.69 678.19 209.17 678.19C210.31 678.19 211.33 678.02 212.22 677.67C213.11 677.32 213.84 676.83 214.41 676.19C214.99 675.55 215.38 674.81 215.58 673.95L212.34 673.58C212.18 674 211.95 674.35 211.65 674.63C211.35 674.91 211 675.13 210.59 675.27C210.18 675.41 209.72 675.49 209.21 675.49C208.46 675.49 207.8 675.32 207.24 675C206.67 674.68 206.23 674.21 205.92 673.6C205.62 673.01 205.46 672.3 205.45 671.48H215.73V670.41ZM205.46 669.14C205.5 668.56 205.64 668.02 205.91 667.53C206.2 666.97 206.62 666.53 207.16 666.18C207.7 665.84 208.32 665.67 209.03 665.67C209.7 665.67 210.28 665.82 210.78 666.12C211.29 666.42 211.68 666.83 211.96 667.35C212.24 667.88 212.39 668.47 212.39 669.14H205.46Z" fill="#5A999B"/>
<path d="M225.83 662.94C224.99 662.94 224.23 663.17 223.58 663.64C222.92 664.1 222.46 664.76 222.19 665.61H222.04V663.15H218.67V677.9H222.15V669.23C222.15 668.6 222.29 668.05 222.58 667.57C222.87 667.09 223.26 666.71 223.77 666.44C224.27 666.17 224.84 666.03 225.48 666.03C225.77 666.03 226.08 666.05 226.4 666.09C226.72 666.13 226.95 666.18 227.1 666.23V663.03C226.94 663 226.74 662.97 226.5 662.96C226.26 662.94 226.04 662.94 225.85 662.94H225.83Z" fill="#5A999B"/>
<path d="M246.69 672.49H246.46L240.62 658.24H236.26V677.91H239.68V664.36H239.86L245.3 677.85H247.85L253.29 664.39H253.47V677.91H256.89V658.24H252.53L246.69 672.49Z" fill="#5A999B"/>
<path d="M272.12 665.58C271.76 664.93 271.29 664.41 270.71 664.03C270.13 663.65 269.49 663.38 268.78 663.21C268.08 663.04 267.37 662.96 266.66 662.96C265.63 662.96 264.69 663.11 263.84 663.42C262.98 663.72 262.26 664.18 261.67 664.78C261.09 665.39 260.66 666.14 260.41 667.03L263.65 667.49C263.83 666.99 264.16 666.55 264.66 666.18C265.15 665.81 265.83 665.62 266.68 665.62C267.53 665.62 268.1 665.82 268.53 666.22C268.96 666.61 269.18 667.17 269.18 667.9V667.95C269.18 668.29 269.05 668.53 268.81 668.69C268.56 668.85 268.17 668.96 267.63 669.04C267.09 669.11 266.39 669.19 265.53 669.28C264.81 669.36 264.12 669.48 263.45 669.65C262.78 669.82 262.18 670.07 261.65 670.39C261.11 670.72 260.69 671.16 260.39 671.7C260.08 672.25 259.93 672.93 259.93 673.77C259.93 674.73 260.14 675.55 260.57 676.21C261.01 676.87 261.6 677.36 262.34 677.7C263.09 678.04 263.93 678.2 264.86 678.2C265.63 678.2 266.3 678.1 266.88 677.88C267.45 677.67 267.93 677.38 268.31 677.03C268.69 676.67 268.98 676.29 269.2 675.88H269.31V677.91H272.65V668.03C272.65 667.05 272.47 666.24 272.12 665.58ZM269.19 672.61C269.19 673.16 269.05 673.66 268.77 674.12C268.49 674.58 268.09 674.95 267.58 675.23C267.07 675.51 266.46 675.65 265.77 675.65C265.04 675.65 264.45 675.49 263.98 675.16C263.51 674.83 263.28 674.35 263.28 673.71C263.28 673.26 263.4 672.89 263.63 672.61C263.87 672.32 264.19 672.1 264.6 671.94C265.01 671.78 265.48 671.67 266 671.6C266.23 671.56 266.5 671.52 266.81 671.48C267.13 671.44 267.44 671.38 267.76 671.33C268.08 671.27 268.37 671.2 268.63 671.12C268.89 671.05 269.08 670.96 269.19 670.87V672.61Z" fill="#5A999B"/>
<path d="M286.72 663.61C285.96 663.17 285.07 662.96 284.06 662.96C282.96 662.96 282.04 663.2 281.29 663.69C280.54 664.18 280 664.83 279.66 665.66H279.49V663.15H276.17V677.9H279.65V669.26C279.65 668.55 279.78 667.94 280.05 667.44C280.32 666.94 280.68 666.56 281.16 666.29C281.63 666.02 282.17 665.89 282.78 665.89C283.68 665.89 284.38 666.17 284.89 666.73C285.4 667.29 285.65 668.06 285.65 669.04V677.9H289.13V668.51C289.13 667.33 288.93 666.33 288.51 665.5C288.09 664.67 287.5 664.04 286.74 663.61H286.72Z" fill="#5A999B"/>
<path d="M304.15 665.58C303.8 664.93 303.33 664.41 302.74 664.03C302.16 663.65 301.52 663.38 300.81 663.21C300.11 663.04 299.4 662.96 298.69 662.96C297.66 662.96 296.72 663.11 295.87 663.42C295.01 663.72 294.29 664.18 293.71 664.78C293.12 665.39 292.69 666.14 292.44 667.03L295.68 667.49C295.86 666.99 296.19 666.55 296.69 666.18C297.18 665.81 297.86 665.62 298.71 665.62C299.56 665.62 300.13 665.82 300.56 666.22C300.99 666.61 301.21 667.17 301.21 667.9V667.95C301.21 668.29 301.08 668.53 300.84 668.69C300.59 668.85 300.2 668.96 299.66 669.04C299.12 669.11 298.42 669.19 297.56 669.28C296.84 669.36 296.15 669.48 295.48 669.65C294.81 669.82 294.21 670.07 293.68 670.39C293.15 670.72 292.73 671.16 292.42 671.7C292.11 672.25 291.96 672.93 291.96 673.77C291.96 674.73 292.17 675.55 292.61 676.21C293.04 676.87 293.63 677.36 294.37 677.7C295.12 678.04 295.96 678.2 296.89 678.2C297.66 678.2 298.33 678.1 298.91 677.88C299.48 677.67 299.96 677.38 300.34 677.03C300.72 676.67 301.01 676.29 301.23 675.88H301.34V677.91H304.68V668.03C304.68 667.05 304.51 666.24 304.15 665.58ZM301.22 672.61C301.22 673.16 301.08 673.66 300.8 674.12C300.52 674.58 300.12 674.95 299.61 675.23C299.1 675.51 298.49 675.65 297.8 675.65C297.07 675.65 296.48 675.49 296.01 675.16C295.54 674.83 295.31 674.35 295.31 673.71C295.31 673.26 295.43 672.89 295.66 672.61C295.9 672.32 296.22 672.1 296.63 671.94C297.04 671.78 297.51 671.67 298.03 671.6C298.26 671.56 298.53 671.52 298.84 671.48C299.16 671.44 299.47 671.38 299.79 671.33C300.11 671.27 300.4 671.2 300.66 671.12C300.92 671.05 301.11 670.96 301.22 670.87V672.61Z" fill="#5A999B"/>
<path d="M318.1 663.15V665.59H317.91C317.74 665.23 317.48 664.85 317.15 664.44C316.82 664.04 316.37 663.69 315.81 663.4C315.25 663.11 314.54 662.96 313.67 662.96C312.54 662.96 311.51 663.25 310.59 663.83C309.67 664.41 308.94 665.26 308.4 666.38C307.85 667.49 307.58 668.86 307.58 670.48C307.58 672.1 307.85 673.43 308.4 674.49C308.94 675.56 309.67 676.36 310.59 676.89C311.5 677.43 312.53 677.69 313.66 677.69C314.51 677.69 315.21 677.57 315.77 677.31C316.33 677.05 316.78 676.74 317.13 676.36C317.47 675.98 317.73 675.61 317.91 675.25H318.08V678.05C318.08 679.14 317.76 679.92 317.11 680.4C316.46 680.87 315.65 681.11 314.66 681.11C313.96 681.11 313.39 681.02 312.93 680.83C312.47 680.64 312.11 680.4 311.84 680.12C311.57 679.83 311.37 679.55 311.22 679.26L308.09 680.02C308.3 680.7 308.68 681.33 309.23 681.89C309.77 682.45 310.49 682.9 311.39 683.24C312.28 683.58 313.36 683.75 314.6 683.75C315.93 683.75 317.12 683.54 318.16 683.13C319.2 682.72 320.03 682.1 320.63 681.28C321.23 680.45 321.53 679.41 321.53 678.15V663.15H318.1ZM317.7 672.88C317.43 673.55 317.03 674.07 316.52 674.43C316 674.79 315.37 674.97 314.63 674.97C313.89 674.97 313.23 674.78 312.71 674.4C312.19 674.03 311.79 673.5 311.53 672.83C311.26 672.15 311.13 671.36 311.13 670.46C311.13 669.56 311.26 668.78 311.52 668.08C311.78 667.37 312.18 666.82 312.69 666.42C313.21 666.02 313.86 665.81 314.63 665.81C315.4 665.81 316.02 666.01 316.53 666.39C317.05 666.78 317.44 667.32 317.7 668.02C317.97 668.72 318.1 669.53 318.1 670.46C318.1 671.39 317.97 672.21 317.7 672.88Z" fill="#5A999B"/>
<path d="M338.19 670.41C338.19 669.12 338.01 668 337.66 667.07C337.3 666.13 336.81 665.36 336.18 664.75C335.56 664.14 334.84 663.69 334.03 663.4C333.22 663.11 332.36 662.96 331.45 662.96C330.04 662.96 328.82 663.28 327.77 663.93C326.73 664.57 325.92 665.47 325.34 666.62C324.76 667.76 324.47 669.1 324.47 670.62C324.47 672.14 324.76 673.5 325.33 674.64C325.91 675.77 326.73 676.65 327.81 677.27C328.88 677.88 330.16 678.19 331.63 678.19C332.78 678.19 333.8 678.02 334.69 677.67C335.58 677.32 336.31 676.83 336.88 676.19C337.46 675.55 337.84 674.81 338.05 673.95L334.8 673.58C334.65 674 334.42 674.35 334.12 674.63C333.82 674.91 333.47 675.13 333.06 675.27C332.65 675.41 332.19 675.49 331.68 675.49C330.93 675.49 330.27 675.32 329.7 675C329.14 674.68 328.7 674.21 328.39 673.6C328.08 673.01 327.93 672.3 327.92 671.48H338.19V670.41ZM327.93 669.14C327.96 668.56 328.11 668.02 328.37 667.53C328.67 666.97 329.09 666.53 329.63 666.18C330.16 665.84 330.79 665.67 331.5 665.67C332.17 665.67 332.75 665.82 333.25 666.12C333.76 666.42 334.15 666.83 334.43 667.35C334.71 667.88 334.85 668.47 334.86 669.14H327.93Z" fill="#5A999B"/>
<path d="M357.27 662.96C356.2 662.96 355.28 663.21 354.5 663.69C353.72 664.17 353.17 664.83 352.84 665.65H352.69C352.41 664.82 351.92 664.16 351.23 663.68C350.54 663.2 349.7 662.95 348.7 662.95C347.7 662.95 346.87 663.19 346.16 663.67C345.45 664.15 344.94 664.81 344.63 665.65H344.46V663.14H341.14V677.89H344.62V668.92C344.62 668.31 344.74 667.78 344.98 667.32C345.22 666.86 345.55 666.51 345.96 666.25C346.37 666 346.82 665.87 347.32 665.87C348.06 665.87 348.65 666.1 349.11 666.55C349.57 667 349.8 667.61 349.8 668.37V677.88H353.21V668.68C353.21 667.85 353.45 667.17 353.92 666.65C354.39 666.13 355.04 665.87 355.88 665.87C356.58 665.87 357.18 666.08 357.67 666.51C358.16 666.94 358.4 667.61 358.4 668.52V677.88H361.89V667.98C361.89 666.33 361.46 665.08 360.6 664.22C359.74 663.36 358.63 662.93 357.28 662.93L357.27 662.96Z" fill="#5A999B"/>
<path d="M378.5 670.41C378.5 669.12 378.33 668 377.97 667.07C377.61 666.13 377.12 665.36 376.49 664.75C375.87 664.14 375.15 663.69 374.34 663.4C373.53 663.11 372.67 662.96 371.76 662.96C370.35 662.96 369.13 663.28 368.08 663.93C367.04 664.57 366.23 665.47 365.65 666.62C365.07 667.76 364.78 669.1 364.78 670.62C364.78 672.14 365.07 673.5 365.64 674.64C366.22 675.77 367.04 676.65 368.12 677.27C369.19 677.88 370.47 678.19 371.94 678.19C373.09 678.19 374.11 678.02 375 677.67C375.89 677.32 376.62 676.83 377.19 676.19C377.77 675.55 378.16 674.81 378.36 673.95L375.11 673.58C374.96 674 374.73 674.35 374.43 674.63C374.13 674.91 373.78 675.13 373.37 675.27C372.96 675.41 372.5 675.49 371.99 675.49C371.24 675.49 370.58 675.32 370.01 675C369.45 674.68 369.01 674.21 368.7 673.6C368.4 673.01 368.24 672.3 368.23 671.48H378.5V670.41ZM368.24 669.14C368.28 668.56 368.42 668.02 368.68 667.53C368.98 666.97 369.4 666.53 369.94 666.18C370.48 665.84 371.1 665.67 371.81 665.67C372.48 665.67 373.06 665.82 373.56 666.12C374.07 666.42 374.46 666.83 374.74 667.35C375.02 667.88 375.17 668.47 375.17 669.14H368.24Z" fill="#5A999B"/>
<path d="M392 663.61C391.24 663.17 390.35 662.96 389.33 662.96C388.23 662.96 387.31 663.2 386.56 663.69C385.81 664.18 385.27 664.83 384.93 665.66H384.76V663.15H381.44V677.9H384.92V669.26C384.92 668.55 385.05 667.94 385.32 667.44C385.59 666.94 385.95 666.56 386.42 666.29C386.89 666.02 387.43 665.89 388.04 665.89C388.94 665.89 389.64 666.17 390.15 666.73C390.66 667.29 390.91 668.06 390.91 669.04V677.9H394.39V668.51C394.39 667.33 394.19 666.33 393.77 665.5C393.35 664.67 392.76 664.04 392 663.61Z" fill="#5A999B"/>
<path d="M404.98 675.04C404.88 675.07 404.74 675.09 404.56 675.13C404.38 675.16 404.18 675.18 403.96 675.18C403.67 675.18 403.41 675.14 403.17 675.05C402.93 674.96 402.74 674.79 402.6 674.55C402.46 674.31 402.38 673.95 402.38 673.48V665.85H405.29V663.16H402.38V659.63H398.9V663.16H396.81V665.85H398.9V674.05C398.9 674.97 399.09 675.74 399.5 676.36C399.91 676.98 400.46 677.43 401.16 677.72C401.86 678.01 402.64 678.14 403.51 678.12C404 678.11 404.42 678.06 404.76 677.99C405.1 677.91 405.37 677.84 405.55 677.78L404.96 675.06L404.98 675.04Z" fill="#5A999B"/>
<path d="M57.16 593.18C53.71 589.04 49.91 585.8 45.78 583.45C35.02 577.24 29.63 572.35 29.63 568.76C29.63 563.65 35.08 559.38 45.98 555.93C51.5 554.27 55.64 553.44 58.4 553.44C58.26 549.44 57.09 545.54 54.88 541.75C52.67 537.95 50.88 536.06 49.5 536.06C37.63 536.06 26.46 539.58 15.97 546.61C5.48997 553.65 0.23999 561.38 0.23999 569.79C0.23999 573.79 1.96998 577.62 5.41998 581.28C8.86998 584.94 12.66 587.87 16.8 590.07C20.94 592.28 24.73 594.83 28.19 597.73C31.63 600.63 33.36 603.39 33.36 606.01C33.36 610.01 30.53 613.87 24.87 617.6C19.21 621.33 11.01 623.19 0.23999 623.19V624.64C0.23999 630.71 1.96998 636.02 5.41998 640.58C6.65998 642.23 7.62001 643.06 8.32001 643.06C14.39 643.06 21.46 641.78 29.53 639.23C37.6 636.67 45.12 632.47 52.09 626.6C59.06 620.74 62.54 614.08 62.54 606.63C62.4 601.8 60.61 597.32 57.16 593.18Z" fill="#5A999B"/>
<path d="M101.24 520.94C101.65 506.74 102 498.04 102.28 494.87C102.28 494.32 100.48 494.04 96.9001 494.04C93.3201 494.04 89.1301 494.94 84.3701 496.73C79.6201 498.53 77.2301 500.12 77.2301 501.49C77.2301 501.91 77.4401 503.29 77.8501 505.63C78.2701 507.98 78.4801 513.15 78.4801 521.15C74.2001 521.29 70.5401 521.43 67.5101 521.57C66.2701 522.67 65.6401 525.88 65.6401 531.19C65.6401 536.5 65.9901 539.51 66.6801 540.19L78.2701 539.99C77.8501 556.54 77.6501 574.14 77.6501 592.76C77.6501 611.38 77.8201 622.23 78.1701 625.26C78.5101 628.3 79.3401 631.4 80.6501 634.57C81.9601 637.74 83.2001 640.02 84.3701 641.4C85.5501 642.78 86.3401 643.47 86.7601 643.47C91.4401 643.47 96.4501 642.02 101.76 639.12C107.07 636.23 109.73 634.02 109.73 632.5C104.9 627.95 102.07 622.09 101.24 614.91C100.83 610.63 100.62 602.11 100.62 589.35C100.62 576.59 100.76 560 101.03 539.58H110.76C112.01 539.58 113.31 537.74 114.7 534.09C116.07 530.43 116.76 526.26 116.76 521.57C116.76 521.15 111.59 520.94 101.24 520.94Z" fill="#5A999B"/>
<path d="M198.52 613.05C197.96 610.15 197.69 603.32 197.69 592.56C197.69 581.8 198.1 566.55 198.93 546.82L199.34 537.09C198.79 536.54 196.73 536.26 193.14 536.26C189.55 536.26 185.92 536.95 182.27 538.33C178.61 539.71 176.44 541.02 175.75 542.26C174.92 544.2 174.51 557.79 174.51 583.04V590.07C174.64 591.87 173.03 594.94 169.65 599.28C166.26 603.63 162.4 605.8 158.06 605.8C153.72 605.8 150.5 603.8 148.43 599.8C147.74 598.42 147.22 596.77 146.88 594.83C146.53 592.9 146.33 591.56 146.26 590.8C146.19 590.04 146.08 588.32 145.95 585.62C145.81 582.93 145.74 578.76 145.74 573.1C145.74 567.44 146.08 559.38 146.77 548.89C146.91 545.3 146.98 543.44 146.98 543.3C146.29 542.61 144.36 542.26 141.19 542.26C133.18 542.26 127.39 543.71 123.8 546.61C122.56 549.37 121.94 558.2 121.94 573.1C121.94 588 122.08 597.25 122.35 600.84C124.43 623.33 132.7 634.57 147.19 634.57C152.02 634.57 156.95 633.05 161.99 630.02C167.02 626.98 171.2 622.91 174.51 617.81L174.71 618.22L174.92 622.57C175.2 626.43 176.03 630.43 177.41 634.57C178.78 638.71 180.03 640.78 181.13 640.78C185.13 640.78 189.96 639.26 195.62 636.23C201.28 633.19 204.11 630.98 204.11 629.6C201.34 625.47 199.48 619.95 198.52 613.05Z" fill="#5A999B"/>
<path d="M243.84 520.94C244.25 506.74 244.59 498.04 244.87 494.87C244.87 494.32 243.08 494.04 239.49 494.04C235.9 494.04 231.73 494.94 226.97 496.73C222.21 498.53 219.83 500.12 219.83 501.49C219.83 501.91 220.04 503.29 220.45 505.63C220.86 507.98 221.07 513.15 221.07 521.15C216.79 521.29 213.14 521.43 210.1 521.57C208.86 522.67 208.24 525.88 208.24 531.19C208.24 536.5 208.58 539.51 209.27 540.19L220.86 539.99C220.45 556.54 220.24 574.14 220.24 592.76C220.24 611.38 220.41 622.23 220.76 625.26C221.1 628.3 221.93 631.4 223.25 634.57C224.55 637.74 225.8 640.02 226.97 641.4C228.14 642.78 228.94 643.47 229.35 643.47C234.04 643.47 239.05 642.02 244.36 639.12C249.67 636.23 252.33 634.02 252.33 632.5C247.49 627.95 244.67 622.09 243.84 614.91C243.43 610.63 243.22 602.11 243.22 589.35C243.22 576.59 243.35 560 243.63 539.58H253.36C254.6 539.58 255.91 537.74 257.29 534.09C258.67 530.43 259.36 526.26 259.36 521.57C259.36 521.15 254.19 520.94 243.84 520.94Z" fill="#5A999B"/>
<path d="M322.07 540.61C315.31 540.61 308.96 542.54 303.03 546.4C300.68 547.79 298.51 549.44 296.51 551.37C294.51 553.3 293.2 554.65 292.58 555.41C291.96 556.17 291.51 556.72 291.23 557.06C290.96 557.41 290.68 557.58 290.41 557.58C290.14 557.58 289.99 555.2 289.99 550.44C289.99 545.68 290.2 541.43 290.61 537.71C290.61 537.02 288.99 536.67 285.75 536.67C282.51 536.67 279.02 537.26 275.3 538.44C271.57 539.61 268.95 540.95 267.43 542.47C266.88 543.02 266.6 547.37 266.6 555.51L267.02 602.49C267.02 618.91 266.54 629.81 265.57 635.19C265.57 635.61 266.12 635.81 267.23 635.81C278.54 635.81 286.13 633.95 289.99 630.22C290.41 629.81 290.61 621.33 290.61 604.77V586.55C290.61 584.9 291.72 582.42 293.93 579.11C299.58 570.96 307.38 566.89 317.31 566.89L320 567.31L320.83 565.65C322.76 562.34 323.73 556.75 323.73 548.89C323.73 545.16 323.18 542.4 322.07 540.61Z" fill="#5A999B"/>
<path d="M358.08 510.6C355.74 508.11 352.67 506.88 348.87 506.88C345.07 506.88 341.66 508.32 338.63 511.22C335.59 514.12 334.07 517.57 334.07 521.57C334.07 525.57 335.21 528.78 337.49 531.19C339.77 533.6 342.8 534.81 346.6 534.81C350.4 534.81 353.84 533.4 356.95 530.57C360.05 527.75 361.6 524.33 361.6 520.32C361.6 516.31 360.43 513.08 358.08 510.6ZM359.84 615.63C359.22 610.6 358.91 602.7 358.91 591.94L359.32 558.41L359.53 547.85C358.84 547.03 356.91 546.61 353.74 546.61C345.73 546.61 340.15 547.85 336.97 550.34C336.01 552.27 335.52 563.93 335.52 585.31C335.52 606.69 335.7 619.26 336.04 622.98C336.38 626.71 337.18 630.64 338.42 634.78C339.66 638.92 340.91 640.99 342.14 640.99C346.15 640.99 350.98 639.47 356.64 636.44C362.29 633.4 365.12 631.19 365.12 629.81C362.22 625.4 360.47 620.67 359.84 615.63Z" fill="#5A999B"/>
<path d="M432.38 593.18C428.93 589.04 425.13 585.8 420.99 583.45C410.23 577.24 404.85 572.35 404.85 568.76C404.85 563.65 410.3 559.38 421.2 555.93C426.72 554.27 430.86 553.44 433.62 553.44C433.48 549.44 432.31 545.54 430.1 541.75C427.89 537.95 426.1 536.06 424.72 536.06C412.85 536.06 401.68 539.58 391.19 546.61C380.71 553.65 375.46 561.38 375.46 569.79C375.46 573.79 377.19 577.62 380.64 581.28C384.08 584.94 387.88 587.87 392.02 590.07C396.16 592.28 399.95 594.83 403.41 597.73C406.85 600.63 408.58 603.39 408.58 606.01C408.58 610.01 405.75 613.87 400.09 617.6C394.43 621.33 386.23 623.19 375.46 623.19V624.64C375.46 630.71 377.19 636.02 380.64 640.58C381.88 642.23 382.84 643.06 383.54 643.06C389.61 643.06 396.68 641.78 404.75 639.23C412.82 636.67 420.34 632.47 427.31 626.6C434.28 620.74 437.76 614.08 437.76 606.63C437.62 601.8 435.83 597.32 432.38 593.18Z" fill="#5A999B"/>
<path d="M228.64 77.39C228.33 76.74 228.02 76.11 227.88 75.83C227.51 75.11 224.59 68.3 224.59 68.3C224.59 68.3 224.29 68.43 224.18 68.44C223.86 68.46 223.31 68.32 222.96 67.97L227.48 84.88C228.38 85.27 229.8 86.47 229.96 86.31C230.15 86.12 228.77 84.1 228.73 83.94C228.72 83.92 228.72 83.89 228.72 83.86C228.72 83.25 230.07 81.44 230.07 81.44C229.74 80.04 229.25 78.69 228.64 77.39Z" fill="#5A999B"/>
<path d="M206.32 144.32L229.78 150.61C229.53 148.61 229.69 146.94 230.24 145.62C231.29 143.09 232.75 141.32 236.89 140.22C241.02 139.12 263.67 139.87 263.36 139.08C263.04 138.29 260.03 133.41 259.05 131.29C258.07 129.17 258.25 117.85 258.25 117.85C258.25 117.85 257.57 115.02 256.72 114.08C255.88 113.15 243.4 108.26 242.68 107.97C241.97 107.68 243.07 104.45 243.07 104.45C243.07 104.45 231.84 97.71 231.4 97.19C230.97 96.68 229.64 97.88 228.82 97.03C228.21 96.41 226.14 91.97 224.25 90.25L207.09 107.42L214.36 134.54C214.59 135.39 214.35 136.29 213.72 136.92L206.32 144.32Z" fill="#5A999B"/>
<path d="M263.24 195.49C264.22 194.96 264.22 194.56 264.22 194.56C264.22 194.56 258.63 183.63 258.48 183.23C258.42 183.06 256.55 183.88 254.24 184.73L261.91 213.36C262.14 214.21 261.9 215.12 261.28 215.74L253.87 223.15L263.67 225.77C263.61 225.73 263.58 225.69 263.55 225.65C262.49 224.21 260.99 221.36 261.7 219.8C262.42 218.23 262.94 218.99 263.33 218.27C263.72 217.55 266.02 215.03 265.74 214.04C265.47 213.05 264.49 205.57 264.09 202.79C263.68 200.01 262.84 198.82 263.72 198.57C264.61 198.33 262.72 197.06 262.5 196.79C262.28 196.52 262.25 196.02 263.24 195.49Z" fill="#5A999B"/>
<path d="M280.62 283.19L285.51 284.5C283.88 283.83 282.81 282.06 283.34 280.19C283.35 280.16 283.36 280.13 283.37 280.09C284.33 276.95 285.75 275.04 285.91 273.24C286.07 271.44 284.35 267.43 284.46 266.42C284.57 265.42 285.72 264.27 285.7 263.15C285.68 262.04 285.11 254.88 284.12 252.86C282.95 251.24 280.54 253.51 278.79 253.36C277.04 253.21 275.06 252.76 274.74 252.04C274.42 251.33 267.71 226.69 267.71 226.69C267.71 226.69 266.37 226.86 265.15 226.57C265.43 226.86 265.62 227.21 265.73 227.6L280.62 283.19Z" fill="#5A999B"/>
<path d="M369.45 16.25H196.49C191.05 16.25 186.64 20.66 186.64 26.1V46.52L214.95 54.11C215.21 53.29 216.79 52.11 217.22 52.06C217.7 52 222.76 54.32 224.2 55.65C226.09 57.41 228.24 61.73 229.65 64.43C231.06 67.13 245.51 88.82 246.27 88.88C246.97 88.94 253.02 86.96 253.68 87.32C254.27 87.63 258.08 86.61 260.53 85.9C260.51 84.62 258.92 83.8 257.12 83.93C255.18 84.06 252.91 84.33 252.48 83.37C252.04 82.42 251.41 78.47 250.86 77.72C250.31 76.97 250.34 76.38 250.4 76.24C250.46 76.1 249.8 75.99 249.48 75.57C249.17 75.14 248.93 74.8 249.08 74.46C249.23 74.13 249.74 73.59 249.74 73.16C249.74 72.73 249.93 72.35 249.74 72.08C249.54 71.82 248.32 71.18 247.83 70.15C247.35 69.11 247.42 68.48 248.07 68.18C248.72 67.88 250.35 67.08 250.84 66.39C251.33 65.69 251.42 64.69 251.42 64.69C251.42 64.69 246.66 60.04 248.06 55.19C249.46 50.34 252.33 50.28 252.33 50.28C252.33 50.28 255.31 43.74 260.69 42.17C266.08 40.61 274.72 39.05 281.83 42.39C288.94 45.72 292.76 49.86 293.66 53.38C294.56 56.9 295.9 66.88 294.09 71.05C293.61 74.07 289.54 79.19 285.37 80.49C285.99 81.93 292.98 102.42 293.16 106.76C293.34 111.1 293.5 117.5 293.5 117.5C293.5 117.5 296.63 119.12 296.64 126.03C298.39 129.06 298.75 136.94 297.29 140.27C297.78 143.21 301.9 156.5 298.45 166.23C296.22 172.54 294.02 175.28 292.75 176.42C291.72 177.34 290.87 178.44 290.16 179.61L289.19 181.18C288.03 183.07 287.43 185.24 287.43 187.42C287.43 188.22 287.51 189.02 287.67 189.81L286.94 191.77C286.94 191.77 290.16 193.51 289.88 197.79C289.6 202.06 284.88 209.66 284.69 210.74C284.5 211.82 294.04 246.59 294.04 246.59C294.04 246.59 294.2 247.4 293.84 247.88C293.47 248.36 298.79 261.96 299.36 262.43C299.92 262.89 308.62 275.44 307.59 277.87C306.56 280.3 299.88 282.1 298.5 282.05C297.12 281.99 291.18 283 289.54 284.04C289.04 284.36 288.39 284.57 287.73 284.71C287.3 284.8 286.87 284.81 286.46 284.75L307.73 290.45C308.58 290.68 309.24 291.34 309.47 292.19L339.99 406.1C340.22 406.95 339.97 407.86 339.35 408.48L318.51 429.33C318.04 429.79 317.41 430.05 316.76 430.05C316.55 430.05 316.34 430.02 316.13 429.96L287.65 422.33C286.8 422.11 286.14 421.44 285.91 420.59L279.38 396.21L261.54 414.05C261.07 414.52 260.44 414.77 259.8 414.77C259.58 414.77 259.37 414.74 259.16 414.68L232.07 407.43L191.38 448.12C190.91 448.58 190.28 448.84 189.64 448.84C189.43 448.84 189.21 448.81 189 448.75L186.64 448.12V454.7C186.64 460.14 191.05 464.55 196.49 464.55H369.45C374.89 464.55 379.31 460.14 379.31 454.7V26.1C379.31 20.66 374.89 16.25 369.45 16.25Z" fill="#5A999B"/>
<path d="M263.99 225.86L263.67 225.77C264.01 226.19 264.57 226.44 265.15 226.57C264.85 226.23 264.45 225.98 263.99 225.86Z" fill="#5A999B"/>
<path d="M229.28 298.42V298.41H229.3L229.29 298.42H229.28Z" fill="#FF00FF"/>
<path d="M238.69 234.85V234.86L238.68 234.85H238.69Z" fill="#FF00FF"/>
<path d="M218.44 87.2101C218.42 87.3101 218.4 87.4101 218.38 87.5101V87.5401C218.38 87.5401 218.37 87.6101 218.36 87.6601C218.28 87.9501 218.05 88.4001 217.76 88.9201L203.43 103.25L197.64 81.6401L218.44 87.2101Z" fill="#8F9BE3"/>
<path d="M186.65 98.7602V98.7502L181.82 97.4602L180.1 97.0002L178.39 96.5402H178.38L172.59 74.9302L186.65 78.7002L194.2 80.7202V80.7302L194.66 82.4502L195.12 84.1602L199.99 102.33L186.65 98.7602Z" fill="#7583D9"/>
<path d="M220.84 81.4901L199.23 75.7001L193.44 54.0901L214.18 59.6501L215.05 59.8801L215.36 61.0401V61.0601L220.84 81.4901Z" fill="#7583D9"/>
<path d="M172.44 98.14L156.62 113.96L150.83 92.35L166.65 76.53L172.44 98.14Z" fill="#7583D9"/>
<path d="M180.07 126.63L164.25 142.45L158.46 120.84L174.28 105.02L180.07 126.63Z" fill="#7583D9"/>
<path d="M206.04 136.78L198.13 144.69L187.32 141.79L179.41 149.7L168.61 146.81L184.43 130.99L186.65 131.58L206.04 136.78Z" fill="#8F9BE3"/>
<path d="M207.63 130.83L186.65 125.21L186.02 125.04L180.23 103.43L186.65 105.15L201.84 109.22L207.63 130.83Z" fill="#7583D9"/>
<path d="M192.36 73.8599L186.65 72.3299L170.75 68.07L164.96 46.46L186.57 52.25L186.65 52.55L192.36 73.8599Z" fill="#7583D9"/>
<path d="M136.32 61.9901L120.5 77.8101L114.71 56.2001L130.53 40.3801L136.32 61.9901Z" fill="#7583D9"/>
<path d="M162.28 72.1301L146.46 87.9501L124.85 82.1601L140.67 66.3401L162.28 72.1301Z" fill="#8F9BE3"/>
<path d="M163.88 66.18L142.26 60.39L136.47 38.78L158.08 44.57L163.88 66.18Z" fill="#7583D9"/>
<path d="M170.67 190.19L154.85 206.01L149.06 184.4L164.88 168.58L170.67 190.19Z" fill="#F36029"/>
<path d="M243.8 180.17L225.94 175.38L220.15 153.77L231.46 156.8C231.48 156.86 231.51 156.92 231.53 156.98C233.48 161.9 239.81 169.95 241.29 172.13C242.12 173.35 242.96 176.9 243.8 180.17Z" fill="#F36029"/>
<path d="M221.94 233.56L214.03 241.46L203.22 238.57L211.13 230.66L221.94 233.56Z" fill="#F08258"/>
<path d="M253.59 215.6L245.68 223.51L234.87 220.62L226.97 228.53L216.16 225.63L231.98 209.81L253.59 215.6Z" fill="#F08258"/>
<path d="M255.18 209.65L233.57 203.86L227.78 182.25L249.39 188.04L255.18 209.65Z" fill="#F36029"/>
<path d="M191.52 169.35L175.7 185.17L169.91 163.56L185.73 147.74L186.65 151.17L186.79 151.68L187.24 153.39L187.7 155.11L191.52 169.35Z" fill="#F36029"/>
<path d="M219.08 173.54L197.46 167.75L193.65 153.52L193.19 151.8L192.73 150.09L191.67 146.14L195.62 147.2L197.33 147.66L199.05 148.12L213.28 151.93L219.08 173.54Z" fill="#F36029"/>
<path d="M178.3 218.67L162.48 234.49L156.69 212.88L172.51 197.06L178.3 218.67Z" fill="#F36029"/>
<path d="M204.27 228.82L196.36 236.73L186.65 234.12L185.55 233.83L177.64 241.74L166.84 238.85L182.66 223.03L186.65 224.1L204.27 228.82Z" fill="#F08258"/>
<path d="M199.15 197.82L183.33 213.64L177.54 192.03L193.36 176.21L199.15 197.82Z" fill="#F36029"/>
<path d="M225.11 207.97L209.29 223.79L187.68 218L203.5 202.18L225.11 207.97Z" fill="#F08258"/>
<path d="M226.71 202.02L205.1 196.23L199.3 174.62L220.91 180.41L226.71 202.02Z" fill="#F36029"/>
<path d="M189.75 261.39L173.93 277.21L170.19 263.24L168.14 255.6L183.96 239.78L186.65 249.82L189.75 261.39Z" fill="#6EC8AC"/>
<path d="M274.26 280.85L252.65 275.06V275.05L268.46 259.24H268.47L274.26 280.85Z" fill="#6EC8AC"/>
<path d="M265.03 258.32L249.21 274.14L227.6 268.35L243.42 252.53L245.14 252.99L246.86 253.45L265.03 258.32Z" fill="#B5DED7"/>
<path d="M272.66 286.79L256.84 302.61L235.23 296.82L251.05 281L272.66 286.79Z" fill="#B5DED7"/>
<path d="M244.19 279.16L228.37 294.98L206.76 289.19L222.58 273.37L244.19 279.16Z" fill="#B5DED7"/>
<path d="M229.28 298.41L229.29 298.42H229.3L229.28 298.41Z" fill="white"/>
<path d="M266.63 252.37L245.02 246.58L241.2 232.34L240.74 230.63V230.62L240.28 228.91L239.23 224.97L243.17 226.02L244.88 226.48H244.89L246.6 226.94L260.84 230.76L266.63 252.37Z" fill="#6EC8AC"/>
<path d="M239.07 248.17L223.25 263.99L220.36 253.19L219.89 251.47L219.44 249.75L217.46 242.38L233.28 226.56L234.34 230.5L234.8 232.22L235.25 233.93L235.72 235.65L236.18 237.37L239.07 248.17Z" fill="#6EC8AC"/>
<path d="M217.3 265.59L195.69 259.8L192.79 248.99L192.34 247.27L191.88 245.56L191.42 243.84L190.96 242.13L189.9 238.18L193.85 239.24L195.56 239.7L197.28 240.16L198.99 240.62L200.71 241.08L211.51 243.98L213.48 251.35L213.94 253.06L214.4 254.78L217.3 265.59Z" fill="#6EC8AC"/>
<path d="M215.71 271.53L199.89 287.35L193.05 285.52L193.01 285.51L178.28 281.56L194.1 265.74L215.71 271.53Z" fill="#B5DED7"/>
<path d="M200.8 290.78L200.81 290.79H200.82L200.8 290.78Z" fill="white"/>
<path d="M282.81 312.76L266.99 328.58L261.2 306.97L277.02 291.15L282.81 312.76Z" fill="#F36029"/>
<path d="M310.37 316.96L288.76 311.17L282.97 289.56L304.58 295.35L310.37 316.96Z" fill="#F36029"/>
<path d="M290.44 341.24L274.62 357.06L268.83 335.45L284.65 319.63L290.44 341.24Z" fill="#F36029"/>
<path d="M318 345.44L296.39 339.65L290.6 318.04L312.21 323.83L318 345.44Z" fill="#F36029"/>
<path d="M298.07 369.72L282.25 385.54L276.46 363.93L292.28 348.11L298.07 369.72Z" fill="#F36029"/>
<path d="M325.63 373.92L304.02 368.12L298.23 346.51L319.84 352.31L325.63 373.92Z" fill="#F36029"/>
<path d="M305.7 398.2L289.88 414.02L284.09 392.41L299.91 376.59L305.7 398.2Z" fill="#F36029"/>
<path d="M331.67 408.34L315.84 424.16L294.23 418.37L310.05 402.55L331.67 408.34Z" fill="#F08258"/>
<path d="M333.26 402.39L311.65 396.6L305.86 374.99L327.47 380.78L333.26 402.39Z" fill="#F36029"/>
<path d="M142.47 380.88L126.65 396.7L120.86 375.09L136.68 359.27L142.47 380.88Z" fill="#F36029"/>
<path d="M219.35 371.86L197.74 366.07L191.95 344.46L213.56 350.25L219.35 371.86Z" fill="#F36029"/>
<path d="M204.54 427.13L188.72 442.95L186.65 442.4L167.11 437.16L182.93 421.34L186.65 422.34L204.54 427.13Z" fill="#F08258"/>
<path d="M225.39 406.28L209.57 422.1L187.95 416.31L203.77 400.49L225.39 406.28Z" fill="#F08258"/>
<path d="M226.98 400.33L205.37 394.54L199.58 372.93L221.19 378.72L226.98 400.33Z" fill="#F36029"/>
<path d="M163.31 360.03L147.49 375.85L141.7 354.24L157.52 338.42L163.31 360.03Z" fill="#F36029"/>
<path d="M190.87 364.23L186.65 363.1L169.26 358.44L163.47 336.83L185.08 342.62L186.65 348.48L190.87 364.23Z" fill="#F36029"/>
<path d="M150.1 409.35L134.28 425.17L128.49 403.56L144.31 387.74L150.1 409.35Z" fill="#F36029"/>
<path d="M176.06 419.5L160.24 435.32L138.63 429.53L154.45 413.71L176.06 419.5Z" fill="#F08258"/>
<path d="M170.94 388.51L155.12 404.33L149.33 382.72L165.15 366.9L170.94 388.51Z" fill="#F36029"/>
<path d="M196.91 398.65L181.09 414.47L159.48 408.68L175.3 392.86L186.65 395.9L196.91 398.65Z" fill="#F08258"/>
<path d="M198.5 392.7L186.65 389.53L176.89 386.91L171.1 365.3L186.65 369.47L192.71 371.09L198.5 392.7Z" fill="#F36029"/>
<path d="M261.03 330.16L239.42 324.37L233.63 302.76L255.24 308.55L261.03 330.16Z" fill="#7583D9"/>
<path d="M205 318.33L189.18 334.15L186.65 324.71L183.39 312.54L199.21 296.72L205 318.33Z" fill="#7583D9"/>
<path d="M230.96 328.48L215.14 344.3L193.53 338.51L209.35 322.69L230.96 328.48Z" fill="#8F9BE3"/>
<path d="M232.56 322.53L210.95 316.74L205.16 295.13L226.77 300.92L232.56 322.53Z" fill="#7583D9"/>
<path d="M241.11 354.44L225.29 370.26L219.5 348.65L235.32 332.83L241.11 354.44Z" fill="#7583D9"/>
<path d="M268.66 358.64L247.05 352.85L241.26 331.24L262.87 337.03L268.66 358.64Z" fill="#7583D9"/>
<path d="M248.73 382.92L232.91 398.74L227.12 377.13L242.94 361.31L248.73 382.92Z" fill="#7583D9"/>
<path d="M274.7 393.06L258.88 408.88L237.27 403.09L253.09 387.27L274.7 393.06Z" fill="#8F9BE3"/>
<path d="M276.29 387.11L254.68 381.32L248.89 359.71L270.5 365.5L276.29 387.11Z" fill="#7583D9"/>
<path d="M123.48 242.43C123.27 244.35 126.06 252.59 128.19 253.3C130.32 254.01 149.62 256.85 152.7 256.38C154.74 256.07 158.71 254.14 161.15 252.87C163.04 251.89 165.33 251.76 167.2 252.78C167.53 252.96 167.84 253.17 168.09 253.42C169.63 254.9 171.35 257.39 171.41 260.29C171.47 263.19 170.11 263.31 169.52 263.37C169.27 263.4 168.69 263.21 168.12 262.98C167.09 262.58 166.42 261.52 166.56 260.42C166.56 260.42 166.56 260.42 166.56 260.41C166.62 260 165.28 260.11 164.9 260.29C164.26 260.6 163.72 261.36 162.77 262.18C161.82 263.01 160.88 263.84 158.98 263.37C157.09 262.89 147.37 265.14 147.37 265.14C147.37 265.14 132.69 269.11 124.51 265.73C123.47 265.67 123.38 267.09 123.38 267.09C123.38 267.09 122.25 270.53 121.54 272.75C120.83 274.97 119.94 278.05 120.3 279.09C120.66 280.13 122.79 279.92 123.56 279.62C124.33 279.32 137.06 272.34 139.04 272.31C141.02 272.28 142.27 273.26 144.67 274.26C144.69 274.27 144.72 274.28 144.74 274.29C146.78 275.16 148.03 277.26 147.86 279.47C147.85 279.67 147.83 279.81 147.8 279.86C147.77 279.91 147.78 280.02 147.81 280.16C148.25 282.22 148.56 284.3 148.47 286.4C148 296.55 146.88 322.28 147.45 322.67C148.16 323.16 159.66 324.85 162.02 324.36C164.37 323.87 165.22 323.07 165.75 323.83C166.28 324.58 166.9 327.16 166.02 329.07C165.13 330.98 164.73 333.69 162.11 333.95C159.49 334.22 157.09 334.48 154.29 334.48C151.49 334.48 147.67 334.75 146.65 335.19C145.63 335.63 142.83 337.23 141.14 337.14C139.45 337.05 134.94 335.24 134.87 332.08C134.81 329.09 136.34 327.86 136.52 327.2C136.7 326.54 134.03 301.27 134.03 301.27C134.03 301.27 133.19 299.8 131.99 301.18C130.79 302.56 128.97 307.71 127.11 309.08C125.74 310.09 121.02 313.06 118.61 314.57C117.7 315.14 117.16 316.13 117.17 317.2C117.2 320.97 117.34 329.7 118.14 331.01C119.16 332.7 121.38 345.84 120.58 351.35C119.78 356.86 118.89 357.66 118.89 357.66C118.89 357.66 117.6 359.3 116.31 360.41C115.02 361.52 100.81 394.96 100.86 398.38C100.9 401.8 101.79 406.55 102.55 407.62C103.3 408.69 105.04 413.48 105.75 413.84C106.46 414.2 107.7 415.08 108.68 415.08C109.66 415.08 111.52 416.01 111.17 416.68C110.81 417.35 107.4 419.21 105.22 419.26C103.04 419.3 99.8501 418.95 98.8301 417.75C97.8101 416.55 94.8301 414.11 91.9001 413.31C88.9701 412.51 83.4201 412.07 83.3701 410.11C83.3301 408.16 83.7701 406.07 86.2101 403.36C88.6501 400.65 93.2301 386.57 93.1801 383.69C93.1401 381.04 93.6601 367.96 100.39 359.18C101.71 357.46 102.46 355.37 102.6 353.2C102.77 350.56 102.88 347.72 102.68 347.01C102.38 345.94 92.0801 327.65 90.6501 326.18C88.8901 324.39 79.0601 315.95 77.1501 311.3C73.4501 302.27 74.4401 284.57 78.7001 272.31C82.9601 260.05 87.8901 249.78 93.4401 244.07C96.6401 240.78 103.87 236.8 104.92 229.73C106.07 226.3 101.32 221.49 100.79 218.02C100.09 213.45 101.7 211.21 101.01 209.09C100.79 208.42 99.5701 207.96 98.7101 210.74C97.0901 216 85.0801 219.75 83.9001 220.08C80.1501 221.13 80.4601 220.6 81.3001 220.01C82.6301 219.08 83.8901 218.04 84.9801 216.83C85.4401 216.31 85.7801 215.87 85.7601 215.72C85.6901 215.26 84.43 215.69 77.41 218.93C71.81 221.51 63.9801 218.37 61.0401 216.99C60.1101 216.55 59.3301 215.85 58.8601 214.94C58.5201 214.28 58.5201 213.78 59.8401 214.38C62.4801 215.58 69.9701 214.62 72.7601 213.19C75.5501 211.76 72.0701 212.3 69.0201 212.77C65.9601 213.24 58.9701 211.89 65.1501 211.27C71.3401 210.65 77.1501 207.62 82.2701 203.95C87.3901 200.28 94.6401 199.86 97.6301 201.05C98.8401 201.53 103.63 204.54 104.6 203.63C107.89 199.6 112.36 198.1 116.39 197.7C122.33 197.11 128.23 198.91 133.18 202.25C137.75 205.34 142.56 210.22 140.26 216.26C139.45 217.95 138.18 217.25 137.87 217.96C137.55 218.68 135.13 225.11 136.28 226.78C137.43 228.45 138.91 229.13 138.79 229.49C138.68 229.85 137.26 230.64 136.5 231.11C135.74 231.57 135.97 232.46 135.66 233.08C135.35 233.71 133.48 234.25 132.94 234.12C132.4 234 130.98 233.92 132.33 235.19C133.68 236.46 133.85 236.74 133.59 237.28C133.33 237.82 132.25 238.31 132.11 239.13C131.97 239.95 132.27 241.99 130.49 241.89C128.7 241.79 125.49 240.05 124.79 240.29C124.09 240.53 123.54 241.5 123.43 242.43H123.48Z" fill="#5A999B"/>
</svg>
