<svg width="24" height="24" viewBox="0 0 24 24" fill="none" xmlns="http://www.w3.org/2000/svg">
<mask id="mask0_16101_856" style="mask-type:alpha" maskUnits="userSpaceOnUse" x="0" y="0" width="24" height="24">
<rect width="24" height="24" fill="#D9D9D9"/>
</mask>
<g mask="url(#mask0_16101_856)">
<path d="M4 8.99688C3.71667 8.99688 3.47917 8.90104 3.2875 8.70937C3.09583 8.51771 3 8.28021 3 7.99688C3 7.71354 3.09583 7.47604 3.2875 7.28438C3.47917 7.09271 3.71667 6.99688 4 6.99688H7C7.55 6.99688 8.02083 7.19271 8.4125 7.58437C8.80417 7.97604 9 8.44688 9 8.99688H4ZM6 17.9969C6.83333 17.9969 7.54167 17.7052 8.125 17.1219C8.70833 16.5385 9 15.8302 9 14.9969C9 14.1635 8.70833 13.4552 8.125 12.8719C7.54167 12.2885 6.83333 11.9969 6 11.9969C5.16667 11.9969 4.45833 12.2885 3.875 12.8719C3.29167 13.4552 3 14.1635 3 14.9969C3 15.8302 3.29167 16.5385 3.875 17.1219C4.45833 17.7052 5.16667 17.9969 6 17.9969ZM19.5 17.9969C19.9167 17.9969 20.2708 17.851 20.5625 17.5594C20.8542 17.2677 21 16.9135 21 16.4969C21 16.0802 20.8542 15.726 20.5625 15.4344C20.2708 15.1427 19.9167 14.9969 19.5 14.9969C19.0833 14.9969 18.7292 15.1427 18.4375 15.4344C18.1458 15.726 18 16.0802 18 16.4969C18 16.9135 18.1458 17.2677 18.4375 17.5594C18.7292 17.851 19.0833 17.9969 19.5 17.9969ZM6 16.4969C5.58333 16.4969 5.22917 16.351 4.9375 16.0594C4.64583 15.7677 4.5 15.4135 4.5 14.9969C4.5 14.5802 4.64583 14.226 4.9375 13.9344C5.22917 13.6427 5.58333 13.4969 6 13.4969C6.41667 13.4969 6.77083 13.6427 7.0625 13.9344C7.35417 14.226 7.5 14.5802 7.5 14.9969C7.5 15.4135 7.35417 15.7677 7.0625 16.0594C6.77083 16.351 6.41667 16.4969 6 16.4969ZM20 13.0219C20.4333 13.1052 20.7917 13.2177 21.075 13.3594C21.3583 13.501 21.6667 13.7302 22 14.0469V7.99688C22 7.44688 21.8042 6.97604 21.4125 6.58438C21.0208 6.19271 20.55 5.99688 20 5.99688H13.7L12.65 4.89688L14.05 3.49687L13.35 2.79688L9.8 6.34687L10.55 7.04688L11.95 5.64688L13 6.69688V8.99688C13 9.54688 12.8042 10.0177 12.4125 10.4094C12.0208 10.801 11.55 10.9969 11 10.9969H8.975C9.35833 11.2802 9.66667 11.5719 9.9 11.8719C10.1333 12.1719 10.3667 12.5469 10.6 12.9969H11C12.1 12.9969 13.0417 12.6052 13.825 11.8219C14.6083 11.0385 15 10.0969 15 8.99688V7.99688H20V13.0219ZM16.025 15.9969C16.125 15.5469 16.2458 15.1844 16.3875 14.9094C16.5292 14.6344 16.75 14.3302 17.05 13.9969H10.9C10.9667 14.3802 11 14.7135 11 14.9969C11 15.2802 10.9667 15.6135 10.9 15.9969H16.025ZM19.5 19.9969C18.5333 19.9969 17.7083 19.6552 17.025 18.9719C16.3417 18.2885 16 17.4635 16 16.4969C16 15.5302 16.3417 14.7052 17.025 14.0219C17.7083 13.3385 18.5333 12.9969 19.5 12.9969C20.4667 12.9969 21.2917 13.3385 21.975 14.0219C22.6583 14.7052 23 15.5302 23 16.4969C23 17.4635 22.6583 18.2885 21.975 18.9719C21.2917 19.6552 20.4667 19.9969 19.5 19.9969ZM6 19.9969C4.61667 19.9969 3.4375 19.5094 2.4625 18.5344C1.4875 17.5594 1 16.3802 1 14.9969C1 13.6135 1.4875 12.4344 2.4625 11.4594C3.4375 10.4844 4.61667 9.99688 6 9.99688C7.38333 9.99688 8.5625 10.4844 9.5375 11.4594C10.5125 12.4344 11 13.6135 11 14.9969C11 16.3802 10.5125 17.5594 9.5375 18.5344C8.5625 19.5094 7.38333 19.9969 6 19.9969Z" fill="white"/>
</g>
</svg>
