<svg width="24" height="24" viewBox="0 0 24 24" fill="none" xmlns="http://www.w3.org/2000/svg">
<mask id="mask0_16101_783" style="mask-type:alpha" maskUnits="userSpaceOnUse" x="0" y="0" width="24" height="24">
<rect width="24" height="24" fill="#D9D9D9"/>
</mask>
<g mask="url(#mask0_16101_783)">
<path fill-rule="evenodd" clip-rule="evenodd" d="M13.2703 4.78815C13.806 4.52382 14.0763 4.10891 14.2243 3.71462C14.2926 3.5327 14.336 3.35272 14.3684 3.21152L14.3904 3.11432L14.3904 3.11426L14.3904 3.11424L14.3905 3.11413C14.4142 3.00886 14.4323 2.92882 14.4558 2.84757C14.5105 2.65877 14.5564 2.61013 14.5987 2.57967C14.6579 2.53694 14.851 2.43594 15.3838 2.43594C15.6632 2.43594 15.8568 2.45348 15.9891 2.47792C16.054 2.48989 16.0984 2.50249 16.1273 2.5127L16.1275 2.51279C16.1299 2.52459 16.1326 2.53951 16.1355 2.55809C16.143 2.60634 16.148 2.67242 16.154 2.75333C16.1866 3.18837 16.2512 4.05223 16.9214 4.87889C17.6894 5.82609 18.6182 5.92699 19.1629 5.98615C19.2227 5.99264 19.2778 5.99864 19.3277 6.00519C19.6005 6.04109 19.6484 6.07821 19.6629 6.09079L19.663 6.09092C19.6687 6.09585 19.7725 6.1853 19.8355 6.62013C19.8774 6.90985 19.831 7.07966 19.7789 7.18278C19.7245 7.29067 19.6296 7.39283 19.4725 7.48838C19.2371 7.63164 18.9289 7.72113 18.6127 7.77913C17.3495 6.33242 14.4718 4.60341 10.5515 6.11846C10.4329 5.87373 10.4074 5.63321 10.5532 5.34536C10.633 5.18801 10.6941 5.16054 10.7234 5.14793C10.7868 5.12066 10.8982 5.09898 11.1466 5.09898C11.2066 5.09898 11.2762 5.10104 11.3538 5.10335L11.3539 5.10335C11.8146 5.11702 12.5589 5.13911 13.2703 4.78815ZM15.3838 0.835938C14.6828 0.835938 14.1048 0.963195 13.6629 1.28188C13.2039 1.61283 13.0185 2.05876 12.9189 2.40257C12.8806 2.53495 12.8491 2.67504 12.8243 2.78546L12.8088 2.85418C12.7785 2.98641 12.7545 3.07749 12.7264 3.15237C12.6816 3.27167 12.6434 3.31327 12.5623 3.35329C12.235 3.5148 11.9399 3.50997 11.4864 3.50253C11.3822 3.50082 11.2698 3.49898 11.1466 3.49898C10.8572 3.49898 10.4694 3.51535 10.0908 3.67829C9.67818 3.8559 9.35472 4.17083 9.12602 4.62216C8.56482 5.72968 8.976 6.658 9.3277 7.19968C8.84476 7.56367 8.40009 7.99626 8.00828 8.49228C7.92444 8.59841 7.87059 8.72161 7.84809 8.84987C7.09792 8.89261 6.23019 9.03157 5.45616 9.23786C4.98422 9.36364 4.52235 9.52091 4.1304 9.71022C3.76493 9.88675 3.34979 10.1424 3.09956 10.5181C2.89642 10.8231 2.79042 11.1863 2.85463 11.5742C2.91562 11.9427 3.114 12.2342 3.32511 12.4507C3.7311 12.867 4.35392 13.1789 4.98519 13.4194C6.21333 13.8872 7.85618 14.2235 9.30149 14.402C9.6593 17.6652 9.11372 20.7027 8.48907 22.3527C8.39203 22.609 8.43295 22.8971 8.5975 23.1163C8.76206 23.3354 9.02735 23.4551 9.30055 23.4334C11.3899 23.2676 14.4562 22.5587 16.8438 20.9217C18.0468 20.0968 19.1048 19.0172 19.7572 17.6261C20.4139 16.2258 20.6333 14.5651 20.2415 12.6346C19.9808 11.3499 19.563 10.2483 19.0267 9.32886C19.4323 9.24529 19.8946 9.10451 20.3042 8.85523C20.6516 8.6439 20.9877 8.339 21.2074 7.9035C21.4296 7.46323 21.5004 6.95333 21.4189 6.39088C21.3283 5.76481 21.1251 5.24299 20.7144 4.88488C20.3144 4.53606 19.8418 4.45905 19.5364 4.41886C19.4672 4.40976 19.4016 4.40173 19.3391 4.39408L19.3391 4.39407C18.8113 4.32944 18.5054 4.29197 18.1643 3.87125C17.8346 3.46466 17.8074 3.17343 17.7693 2.76492L17.7693 2.76482C17.7567 2.62945 17.7429 2.4812 17.7164 2.31161C17.6617 1.96058 17.518 1.48594 17.0112 1.17064C16.5878 0.907247 16.0263 0.835938 15.3838 0.835938ZM10.3738 21.6911C11.1737 18.6715 11.5331 13.6447 9.57483 9.12196C10.8917 7.71163 12.7546 7.15184 14.4386 7.5736C16.2261 8.02129 17.9993 9.63074 18.6735 12.9528C19.0031 14.5774 18.8066 15.8848 18.3086 16.9468C17.8062 18.018 16.9705 18.8949 15.939 19.6021C14.2612 20.7524 12.1388 21.4025 10.3738 21.6911ZM8.72465 12.7052C8.70308 12.5774 8.67755 12.4416 8.64739 12.301C8.50397 11.6326 8.27463 10.9469 7.93618 10.4474C7.30962 10.4833 6.55031 10.6021 5.86819 10.7839C5.45665 10.8936 5.09795 11.0197 4.82629 11.151C4.69103 11.2163 4.58983 11.2769 4.51899 11.329C4.50775 11.3372 4.49781 11.3449 4.48903 11.3519C4.65142 11.5075 4.9967 11.7116 5.55478 11.9242C6.42276 12.2548 7.5828 12.5249 8.72465 12.7052ZM13.1361 12.6359C13.9645 12.6359 14.6361 11.9644 14.6361 11.1359C14.6361 10.3075 13.9645 9.63594 13.1361 9.63594C12.3076 9.63594 11.6361 10.3075 11.6361 11.1359C11.6361 11.9644 12.3076 12.6359 13.1361 12.6359Z" fill="white"/>
</g>
</svg>
