<svg width="24" height="24" viewBox="0 0 24 24" fill="none" xmlns="http://www.w3.org/2000/svg">
<mask id="mask0_16101_748" style="mask-type:alpha" maskUnits="userSpaceOnUse" x="0" y="0" width="24" height="24">
<rect width="24" height="24" fill="#D9D9D9"/>
</mask>
<g mask="url(#mask0_16101_748)">
<path d="M6.99896 17.9984V19.9984C6.99896 20.2818 6.90313 20.5193 6.71146 20.7109C6.51979 20.9026 6.28229 20.9984 5.99896 20.9984C5.71563 20.9984 5.47813 20.9026 5.28646 20.7109C5.09479 20.5193 4.99896 20.2818 4.99896 19.9984V10.8484L2.99896 12.3734C2.76563 12.5401 2.51562 12.6109 2.24896 12.5859C1.98229 12.5609 1.76562 12.4318 1.59896 12.1984C1.43229 11.9651 1.36562 11.7151 1.39896 11.4484C1.43229 11.1818 1.56563 10.9651 1.79896 10.7984L10.774 3.92344C10.9573 3.7901 11.1531 3.6901 11.3615 3.62344C11.5698 3.55677 11.7823 3.52344 11.999 3.52344C12.2156 3.52344 12.4281 3.55677 12.6365 3.62344C12.8448 3.6901 13.0406 3.7901 13.224 3.92344L22.199 10.7984C22.4156 10.9651 22.5448 11.1818 22.5865 11.4484C22.6281 11.7151 22.5656 11.9651 22.399 12.1984C22.2323 12.4318 22.0156 12.5609 21.749 12.5859C21.4823 12.6109 21.2323 12.5401 20.999 12.3734L18.999 10.8484V19.9984C18.999 20.2818 18.9031 20.5193 18.7115 20.7109C18.5198 20.9026 18.2823 20.9984 17.999 20.9984C17.7156 20.9984 17.4781 20.9026 17.2865 20.7109C17.0948 20.5193 16.999 20.2818 16.999 19.9984V17.9984H6.99896ZM6.99896 11.9984H16.999V9.99844H6.99896V11.9984ZM6.99896 15.9984H16.999V13.9984H6.99896V15.9984ZM8.74896 7.99844H15.249L11.999 5.52344L8.74896 7.99844Z" fill="white"/>
</g>
</svg>
