<svg width="18" height="18" viewBox="0 0 18 18" fill="none" xmlns="http://www.w3.org/2000/svg">
<path d="M16 -1.74846e-07C16.55 -1.26763e-07 17.0208 0.195833 17.4125 0.5875C17.8042 0.979166 18 1.45 18 2L18 16C18 16.55 17.8042 17.0208 17.4125 17.4125C17.0208 17.8042 16.55 18 16 18L10 18C9.71667 18 9.47917 17.9042 9.2875 17.7125C9.09583 17.5208 9 17.2833 9 17C9 16.7167 9.09583 16.4792 9.2875 16.2875C9.47917 16.0958 9.71667 16 10 16L16 16L16 2L10 2C9.71667 2 9.47917 1.90417 9.2875 1.7125C9.09583 1.52083 9 1.28333 9 0.999999C9 0.716666 9.09583 0.479167 9.2875 0.2875C9.47917 0.0958321 9.71667 -7.24152e-07 10 -6.99382e-07L16 -1.74846e-07ZM3.825 8L11 8C11.2833 8 11.5208 8.09583 11.7125 8.2875C11.9042 8.47917 12 8.71667 12 9C12 9.28333 11.9042 9.52083 11.7125 9.7125C11.5208 9.90417 11.2833 10 11 10L3.825 10L5.7 11.875C5.88333 12.0583 5.975 12.2833 5.975 12.55C5.975 12.8167 5.88333 13.05 5.7 13.25C5.51667 13.45 5.28333 13.5542 5 13.5625C4.71667 13.5708 4.475 13.475 4.275 13.275L0.7 9.7C0.499999 9.5 0.4 9.26666 0.4 9C0.4 8.73333 0.499999 8.5 0.7 8.3L4.275 4.725C4.475 4.525 4.7125 4.42917 4.9875 4.4375C5.2625 4.44583 5.5 4.55 5.7 4.75C5.88333 4.95 5.97083 5.1875 5.9625 5.4625C5.95417 5.7375 5.85833 5.96667 5.675 6.15L3.825 8Z" fill="white"/>
</svg>
