<svg width="21" height="21" viewBox="0 0 21 21" fill="none" xmlns="http://www.w3.org/2000/svg">
<path d="M3.55174 8.5C3.35174 8.41667 3.16424 8.32917 2.98924 8.2375C2.81424 8.14583 2.63507 8.03333 2.45174 7.9L1.72674 8.125C1.51007 8.19167 1.29757 8.18333 1.08924 8.1C0.880903 8.01667 0.718403 7.88333 0.601736 7.7L0.401736 7.35C0.285069 7.15 0.243403 6.93333 0.276736 6.7C0.310069 6.46667 0.418403 6.275 0.601736 6.125L1.15174 5.65C1.1184 5.43333 1.10174 5.21667 1.10174 5C1.10174 4.78333 1.1184 4.56667 1.15174 4.35L0.601736 3.875C0.418403 3.725 0.310069 3.5375 0.276736 3.3125C0.243403 3.0875 0.285069 2.875 0.401736 2.675L0.626736 2.3C0.743403 2.11667 0.901736 1.98333 1.10174 1.9C1.30174 1.81667 1.51007 1.80833 1.72674 1.875L2.45174 2.1C2.63507 1.96667 2.81424 1.85417 2.98924 1.7625C3.16424 1.67083 3.35174 1.58333 3.55174 1.5L3.70174 0.775C3.75174 0.541667 3.86424 0.354167 4.03924 0.2125C4.21424 0.0708333 4.4184 0 4.65174 0H5.05174C5.28507 0 5.48924 0.075 5.66424 0.225C5.83924 0.375 5.95174 0.566667 6.00174 0.8L6.15174 1.5C6.35174 1.58333 6.53924 1.67083 6.71424 1.7625C6.88924 1.85417 7.0684 1.96667 7.25174 2.1L7.97674 1.875C8.1934 1.80833 8.4059 1.81667 8.61424 1.9C8.82257 1.98333 8.98507 2.11667 9.10174 2.3L9.30174 2.65C9.4184 2.85 9.46007 3.06667 9.42674 3.3C9.3934 3.53333 9.28507 3.725 9.10174 3.875L8.55174 4.35C8.58507 4.56667 8.60174 4.78333 8.60174 5C8.60174 5.21667 8.58507 5.43333 8.55174 5.65L9.10174 6.125C9.28507 6.275 9.3934 6.4625 9.42674 6.6875C9.46007 6.9125 9.4184 7.125 9.30174 7.325L9.07674 7.7C8.96007 7.88333 8.80174 8.01667 8.60174 8.1C8.40174 8.18333 8.1934 8.19167 7.97674 8.125L7.25174 7.9C7.0684 8.03333 6.88924 8.14583 6.71424 8.2375C6.53924 8.32917 6.35174 8.41667 6.15174 8.5L6.00174 9.225C5.95174 9.45833 5.83924 9.64583 5.66424 9.7875C5.48924 9.92917 5.28507 10 5.05174 10H4.65174C4.4184 10 4.21424 9.925 4.03924 9.775C3.86424 9.625 3.75174 9.43333 3.70174 9.2L3.55174 8.5ZM4.85174 7C5.40174 7 5.87257 6.80417 6.26424 6.4125C6.6559 6.02083 6.85174 5.55 6.85174 5C6.85174 4.45 6.6559 3.97917 6.26424 3.5875C5.87257 3.19583 5.40174 3 4.85174 3C4.30174 3 3.8309 3.19583 3.43924 3.5875C3.04757 3.97917 2.85174 4.45 2.85174 5C2.85174 5.55 3.04757 6.02083 3.43924 6.4125C3.8309 6.80417 4.30174 7 4.85174 7ZM12.3517 18.9C12.0684 18.8 11.8059 18.6792 11.5642 18.5375C11.3226 18.3958 11.0851 18.2333 10.8517 18.05L9.90174 18.35C9.60174 18.45 9.30174 18.4458 9.00174 18.3375C8.70174 18.2292 8.4684 18.0333 8.30174 17.75L8.02674 17.275C7.86007 16.9917 7.80174 16.6875 7.85174 16.3625C7.90174 16.0375 8.05174 15.7667 8.30174 15.55L9.05174 14.9C9.0184 14.6 9.00174 14.3 9.00174 14C9.00174 13.7 9.0184 13.4 9.05174 13.1L8.30174 12.425C8.05174 12.2083 7.90174 11.9417 7.85174 11.625C7.80174 11.3083 7.86007 11.0083 8.02674 10.725L8.30174 10.25C8.4684 9.96667 8.70174 9.77083 9.00174 9.6625C9.30174 9.55417 9.60174 9.55 9.90174 9.65L10.8517 9.95C11.0851 9.76667 11.3226 9.60417 11.5642 9.4625C11.8059 9.32083 12.0684 9.2 12.3517 9.1L12.5767 8.075C12.6434 7.75833 12.7976 7.5 13.0392 7.3C13.2809 7.1 13.5684 7 13.9017 7H14.5017C14.8351 7 15.1226 7.1 15.3642 7.3C15.6059 7.5 15.7601 7.75833 15.8267 8.075L16.0517 9.1C16.3351 9.2 16.5976 9.32083 16.8392 9.4625C17.0809 9.60417 17.3184 9.76667 17.5517 9.95L18.5017 9.65C18.8017 9.55 19.1017 9.55417 19.4017 9.6625C19.7017 9.77083 19.9351 9.96667 20.1017 10.25L20.3767 10.725C20.5434 11.0083 20.6017 11.3125 20.5517 11.6375C20.5017 11.9625 20.3517 12.2333 20.1017 12.45L19.3517 13.1C19.3851 13.4 19.4017 13.7 19.4017 14C19.4017 14.3 19.3851 14.6 19.3517 14.9L20.1017 15.575C20.3517 15.7917 20.5017 16.0583 20.5517 16.375C20.6017 16.6917 20.5434 16.9917 20.3767 17.275L20.1017 17.75C19.9351 18.0333 19.7017 18.2292 19.4017 18.3375C19.1017 18.4458 18.8017 18.45 18.5017 18.35L17.5517 18.05C17.3184 18.2333 17.0809 18.3958 16.8392 18.5375C16.5976 18.6792 16.3351 18.8 16.0517 18.9L15.8267 19.925C15.7601 20.2417 15.6059 20.5 15.3642 20.7C15.1226 20.9 14.8351 21 14.5017 21H13.9017C13.5684 21 13.2809 20.9 13.0392 20.7C12.7976 20.5 12.6434 20.2417 12.5767 19.925L12.3517 18.9ZM14.2017 17C15.0351 17 15.7434 16.7083 16.3267 16.125C16.9101 15.5417 17.2017 14.8333 17.2017 14C17.2017 13.1667 16.9101 12.4583 16.3267 11.875C15.7434 11.2917 15.0351 11 14.2017 11C13.3684 11 12.6601 11.2917 12.0767 11.875C11.4934 12.4583 11.2017 13.1667 11.2017 14C11.2017 14.8333 11.4934 15.5417 12.0767 16.125C12.6601 16.7083 13.3684 17 14.2017 17Z" fill="white"/>
</svg>
