<svg width="24" height="24" viewBox="0 0 24 24" fill="none" xmlns="http://www.w3.org/2000/svg">
<mask id="mask0_16101_768" style="mask-type:alpha" maskUnits="userSpaceOnUse" x="0" y="0" width="24" height="24">
<rect width="24" height="24" fill="#D9D9D9"/>
</mask>
<g mask="url(#mask0_16101_768)">
<path d="M3.9 11.1781C3.71667 10.9781 3.625 10.7406 3.625 10.4656C3.625 10.1906 3.71667 9.95312 3.9 9.75313L6.7 6.95312L5.625 5.87812L5.325 6.17813C5.125 6.37813 4.8875 6.47813 4.6125 6.47813C4.3375 6.47813 4.1 6.37813 3.9 6.17813C3.71667 5.99479 3.625 5.76146 3.625 5.47813C3.625 5.19479 3.71667 4.96146 3.9 4.77813L5.9 2.77813C6.1 2.57813 6.3375 2.47813 6.6125 2.47813C6.8875 2.47813 7.125 2.57813 7.325 2.77813C7.50833 2.96146 7.6 3.19479 7.6 3.47812C7.6 3.76146 7.50833 3.99479 7.325 4.17813L7.025 4.47813L8.1 5.55313L10.9 2.75313C11.1 2.55313 11.3375 2.45312 11.6125 2.45312C11.8875 2.45312 12.125 2.55313 12.325 2.75313C12.525 2.95312 12.625 3.19063 12.625 3.46563C12.625 3.74063 12.525 3.97812 12.325 4.17813L11.65 4.82812L19.025 12.2031C19.4083 12.5865 19.6 13.0573 19.6 13.6156C19.6 14.174 19.4083 14.6448 19.025 15.0281L18.325 15.7531L22.2 19.6031C22.3667 19.7698 22.4083 19.9531 22.325 20.1531C22.2417 20.3531 22.0833 20.4531 21.85 20.4531H20.825C20.625 20.4531 20.4292 20.4115 20.2375 20.3281C20.0458 20.2448 19.8833 20.1365 19.75 20.0031L16.9 17.1531L16.2 17.8781C15.8167 18.2615 15.3458 18.4531 14.7875 18.4531C14.2292 18.4531 13.7583 18.2615 13.375 17.8781L6 10.5031L5.325 11.1781C5.125 11.3615 4.8875 11.4531 4.6125 11.4531C4.3375 11.4531 4.1 11.3615 3.9 11.1781ZM7.4 9.10313L14.775 16.4781L17.6 13.6281L16.1 12.1031L14.7 13.5031C14.5 13.6865 14.2625 13.7823 13.9875 13.7906C13.7125 13.799 13.4833 13.7115 13.3 13.5281C13.1 13.3281 13 13.0906 13 12.8156C13 12.5406 13.1 12.3031 13.3 12.1031L14.7 10.7031L13.2 9.20312L11.8 10.6031C11.6 10.7865 11.3625 10.8781 11.0875 10.8781C10.8125 10.8781 10.575 10.7865 10.375 10.6031C10.1917 10.4031 10.1 10.1656 10.1 9.89062C10.1 9.61562 10.1917 9.37812 10.375 9.17812L11.775 7.77813L10.25 6.25312L7.4 9.10313Z" fill="white"/>
</g>
</svg>
